<?xml version="1.0" encoding="utf-8"?>
<!-- Generator: Adobe Illustrator 21.0.0, SVG Export Plug-In . SVG Version: 6.00 Build 0)  -->
<svg version="1.1" baseProfile="basic" id="Слой_1"
	 xmlns="http://www.w3.org/2000/svg" xmlns:xlink="http://www.w3.org/1999/xlink" x="0px" y="0px" viewBox="0 0 166.5 244.8"
	 xml:space="preserve">
<g>
	<path fill="#010101" d="M48.3,143.7c0.5,0,1-0.2,1.5-0.5c2.9-2.3,6.2-4.3,9.6-6c1.2-0.6,1.7-2,1.1-3.2c-0.6-1.2-2-1.7-3.2-1.1
		c-3.7,1.8-7.2,4-10.5,6.5c-1,0.8-1.2,2.3-0.4,3.4C46.9,143.3,47.6,143.7,48.3,143.7z"/>
	<path fill="#010101" d="M37.4,156.9c0.7-1.1,0.4-2.6-0.8-3.3c-1.1-0.7-2.6-0.4-3.3,0.8c-12,19.3-11.9,45,0.2,64
		c0.5,0.7,1.2,1.1,2,1.1c0.4,0,0.9-0.1,1.3-0.4c1.1-0.7,1.4-2.2,0.7-3.3C26.5,198.4,26.4,174.7,37.4,156.9z"/>
	<path fill="#010101" d="M165.7,174.4c0-0.2,0-0.4-0.1-0.6c-3.7-24.6-18.5-46.7-40.3-59.5c-6.2-3.6-10.1-10.3-10.1-17.5V45.5
		c0-8,1.9-16,5.4-23.2l5.3-10.7c1.2-2.5,1.1-5.5-0.4-7.8c-1.5-2.4-4.1-3.8-6.9-3.8h-71c-2.8,0-5.4,1.5-6.9,3.8
		c-1.5,2.4-1.6,5.4-0.4,7.8l5.3,10.7c3.6,7.2,5.5,15.2,5.5,23.2v51.3c0,7.2-3.9,13.9-10.1,17.5C15.8,129.2,0,156.7,0,186.1
		c0,20.5,7.5,40.1,21.1,55.3c1.9,2.1,4.6,3.3,7.4,3.3c0,0,0,0,0,0l3.6,0c10.3,0,30.7,0,51.2-0.1c20.4,0,40.9,0,51.2,0.1l3.6,0
		c0,0,0,0,0,0c2.8,0,5.5-1.2,7.4-3.3c13.6-15.2,21.1-34.9,21.1-55.3C166.5,182.2,166.3,178.2,165.7,174.4z M141.9,238.3
		c-1,1.1-2.4,1.7-3.8,1.7c0,0,0,0,0,0l-3.6,0c-10.3,0-30.7,0-51.2-0.1c-20.4,0-40.9,0-51.2,0.1l-3.6,0c0,0,0,0,0,0
		c-1.5,0-2.9-0.6-3.8-1.7c-10.4-11.6-17-25.9-19.1-41.1c4-1.1,7.9-2.8,11.6-5.2c1.1-0.7,1.4-2.2,0.7-3.3c-0.7-1.1-2.2-1.4-3.3-0.7
		c-3.1,2-6.3,3.4-9.5,4.4c-0.2-2-0.3-4.1-0.3-6.2c0-27.7,14.9-53.7,38.9-67.7c7.7-4.5,12.4-12.8,12.4-21.7V45.5
		c0-8.7-2.1-17.5-6-25.3L44.9,9.5c-0.5-1-0.4-2.2,0.2-3.2c0.6-1,1.7-1.6,2.8-1.6h71c1.1,0,2.2,0.6,2.8,1.6c0.6,1,0.6,2.2,0.1,3.2
		l-5.3,10.7c-3.9,7.8-6,16.6-6,25.3v51.3c0,8.9,4.8,17.2,12.4,21.7c20.1,11.7,33.8,31.8,37.7,54.4c-7.9,2.7-14.8,7-21.4,11.1
		c-4.2,2.6-8.6,5.3-13.1,7.6c-9.4,4.7-21.1,4.7-30.5,0c-3-1.6-6.1-3.4-9.3-5.3c-13.6-8-29-17.1-45.4-13.7c-1.3,0.3-2.1,1.5-1.9,2.8
		c0.3,1.3,1.5,2.1,2.8,1.9c14.6-3,28.5,5.2,42,13.1c3.1,1.8,6.3,3.7,9.5,5.4c5.4,2.7,11.4,4,17.4,4c6,0,12.1-1.3,17.4-4
		c4.8-2.4,9.2-5.2,13.5-7.8c6.4-4,12.6-7.8,19.6-10.3c0.3,2.8,0.5,5.6,0.5,8.5C161.7,205.4,154.7,223.9,141.9,238.3z"/>
</g>
</svg>
