<svg version="1.1" xmlns="http://www.w3.org/2000/svg" xmlns:xlink="http://www.w3.org/1999/xlink" x="0px" y="0px" viewBox="0 0 250 278" xml:space="preserve">
	<path d="M247.4,243.8c-8.5,0-13.4-0.9-17.8-2.1l19.2-19.2c0.9-0.9,0.9-2.5,0-3.4s-2.5-0.9-3.4,0l-21.2,21.2 c-3.9-1-8.3-1.9-14.9-2.2l40-40c0.9-0.9,0.9-2.5,0-3.4s-2.5-0.9-3.4,0L202.6,238c-9.4,0.2-14.6,1.6-19.6,3 c-0.2,0.1-0.5,0.1-0.7,0.2l52.4-52.4c3.3-0.6,7.3-1,12.7-1c1.3,0,2.4-1.1,2.4-2.4s-1.1-2.4-2.4-2.4c-5.6,0-9.9,0.4-13.4,1 c-0.5-0.1-1,0-1.5,0.3c-2.6,0.5-4.8,1.1-7,1.7c-5.3,1.5-10.3,2.8-20.6,2.8c-10.4,0-17.5-1.4-25.1-2.9c-5.8-1.1-11.7-2.3-19.2-2.7 c3.1-2.6,6-5.2,7.8-7.1c4.4-4.4,12.3-14.6,15.4-20.6c2.5-4.9,6-15.4,6.9-20.8c0.5-3.1,2.5-6.7,6.4-6.7h50.2c1.3,0,2.4-1.1,2.4-2.4 s-1.1-2.4-2.4-2.4h-50.2c-3.5,0-6.5,1.7-8.6,4.5c-0.2-0.1-0.5-0.1-0.7-0.1H54.5c-0.2,0-0.4,0-0.6,0.1c-2-2.7-5.2-4.4-8.8-4.4H2.9 c-1.3,0-2.4,1.1-2.4,2.4s1.1,2.4,2.4,2.4h42.2c3.4,0,6.1,2.8,6.3,6.5c0,0.7,0.1,1.5,0.1,2.4c0.4,6.2,0.9,15.6,2.9,20.5 c2.8,6.9,12.9,18.1,18.9,22.1c2.1,1.4,5,2.8,8.2,4.2c-5,0.6-9.1,1.5-13,2.3c-6.6,1.5-12.8,2.8-23.1,2.8c-10.3,0-15.3-1.4-20.6-2.8 c-5.4-1.5-10.9-3-21.9-3c-1.3,0-2.4,1.1-2.4,2.4s1.1,2.4,2.4,2.4c4,0,7.2,0.2,9.9,0.5L0.7,200.5c-0.9,0.9-0.9,2.5,0,3.4 c0.5,0.5,1.1,0.7,1.7,0.7s1.2-0.2,1.7-0.7l14.5-14.5c1.7,0.4,3.3,0.8,4.9,1.3c2.7,0.7,5.5,1.5,8.9,2.1L0.7,224.5 c-0.9,0.9-0.9,2.5,0,3.4c0.5,0.5,1.1,0.7,1.7,0.7s1.2-0.2,1.7-0.7l34.4-34.4c2,0.1,4.3,0.2,6.9,0.2c4,0,7.5-0.2,10.6-0.5L5.3,243.8 c-0.8,0-1.6,0-2.4,0c-1.3,0-2.4,1.1-2.4,2.4s1.1,2.4,2.4,2.4c10.9,0,16.5-1.5,21.9-3c3.1-0.8,6.1-1.7,10-2.2c0.2,0,0.4,0.1,0.5,0.1 c0.4,0,0.7-0.1,1.1-0.3c2.5-0.3,5.4-0.4,9-0.4c5.2,0,9.1,0.4,12.3,0.9c0.3,0.2,0.7,0.3,1.1,0.3c0.1,0,0.2,0,0.3,0 c2.5,0.5,4.7,1.1,6.9,1.7c5,1.4,10.1,2.8,19.6,3c0.1,0,0.2,0,0.3,0h2c0.1,0,0.2,0,0.3,0c9.5-0.2,14.6-1.6,19.6-3 c5.3-1.5,10.3-2.8,20.6-2.8c1.1,0,2.1,0,3.1,0c0.1,0,0.2,0,0.2,0c0,0,0.1,0,0.1,0c7.4,0.3,10,1.4,12.7,2.6c1.3,0.6,2.7,1.2,4.5,1.7 c0.5,0.4,1,0.6,1.6,0.6c0.2,0,0.4,0,0.6-0.1c2.6,0.5,6,0.9,11,0.9c0,0,0,0,0.1,0h0.3c0,0,0,0,0.1,0c4.8,0,8.6-0.3,11.8-0.8 c0,0,0.1,0,0.1,0c0.3,0,0.5-0.1,0.8-0.1c3.4-0.6,6.1-1.3,8.8-2c5.3-1.5,10.3-2.8,20.6-2.8c8.5,0,13.4,0.9,17.9,2.1 c0,0,0.1,0.1,0.1,0.1c0.5,0.5,1.1,0.7,1.7,0.7c0.3,0,0.5-0.1,0.8-0.1c0,0,0.1,0,0.1,0c5.4,1.5,10.9,3,21.9,3c1.3,0,2.4-1.1,2.4-2.4 S248.7,243.8,247.4,243.8z M58.9,155.6c-1.7-4.1-2.2-13.4-2.5-19c0-0.9-0.1-1.7-0.1-2.4c0-0.6-0.1-1.2-0.3-1.8h130.3 c-0.1,0.5-0.3,1-0.4,1.6c-0.8,5-4.1,15-6.4,19.4c-2.9,5.5-10.4,15.2-14.6,19.4c-2.9,2.9-7.7,7.2-12.2,10.4 c-0.3,0.1-0.6,0.4-0.9,0.6c-2.2,1.5-4.3,2.8-6,3.4c-6.9,2.4-22.6,2.1-30.9,0.9c-10.4-1.5-30.8-7.1-39-12.6 C70.6,171.9,61.4,161.6,58.9,155.6z M23.5,241c-3.3,0.9-6.5,1.8-10.9,2.3L64,191.9c1.9-0.4,3.8-0.8,5.6-1.2c4.7-1,9.3-2,15.3-2.5 l-50.5,50.5C30,239.2,26.7,240.1,23.5,241z M41.8,238.1l50.2-50.2c0.3,0,0.5,0,0.8,0c0.2,0,0.3,0,0.5,0c4.3,1.3,8.6,2.5,12.6,3.4 l-47.7,47.7c-3.4-0.5-7.4-0.9-12.7-0.9C44.1,238,42.9,238,41.8,238.1z M63.7,240.1l47.7-47.7c1.1,0.2,2.1,0.4,3,0.5 c3,0.4,7.7,0.8,12.8,0.9l-49.5,49.5c-4.2-0.5-7.2-1.4-10.4-2.2C66.1,240.7,64.9,240.4,63.7,240.1z M86.9,243.8c-1,0-2,0-2.9-0.1 l50-50c5.2-0.2,10.1-0.8,13.5-2c2.1-0.7,4.6-2.2,7.1-3.9c0.8,0,1.6,0,2.4,0L102.9,242C98.9,243,94.3,243.8,86.9,243.8z  M112.1,239.6l51.3-51.3c5.4,0.5,10.1,1.4,14.8,2.3L130.8,238c-0.8,0-1.5,0-2.4,0C121,238,116.1,238.7,112.1,239.6z M137.1,238.5 l46.8-46.8c4.6,0.8,9.5,1.6,15.3,1.8l-49,49c-1.4-0.4-2.5-0.9-3.7-1.4C144.2,240.1,141.8,239,137.1,238.5z M162.6,243.8 c-2.7,0-4.8-0.1-6.6-0.3l49.9-49.9c9.6-0.1,14.9-1.4,19.9-2.7l-52.2,52.2C170.6,243.5,167.1,243.8,162.6,243.8z"/>
	<circle cx="196" cy="135.8" r="3.9"/>
	<circle cx="191" cy="150.8" r="3.9"/>
	<circle cx="57.5" cy="179.8" r="3.9"/>
	<circle cx="174.7" cy="178.6" r="3.9"/>
	<circle cx="185.5" cy="165.8" r="3.9"/>
	<circle cx="194.9" cy="181.4" r="3.9"/>
	<circle cx="198.8" cy="165.8" r="3.9"/>
	<circle cx="51.7" cy="165.8" r="3.9"/>
	<circle cx="208.7" cy="178.7" r="3.9"/>
	<circle cx="41.8" cy="178.7" r="3.9"/>
	<circle cx="221.2" cy="177.5" r="3.9"/>
	<circle cx="29.2" cy="177.5" r="3.9"/>
	<circle cx="213.4" cy="163" r="3.9"/>
	<circle cx="37" cy="163" r="3.9"/>
	<circle cx="206.5" cy="150.8" r="3.9"/>
	<circle cx="43.9" cy="150.8" r="3.9"/>
	<circle cx="213.4" cy="139.7" r="3.9"/>
	<circle cx="37" cy="139.7" r="3.9"/>
	<circle cx="223.9" cy="154.7" r="3.9"/>
	<circle cx="26.5" cy="154.7" r="3.9"/>
	<circle cx="227.8" cy="138" r="3.9"/>
	<circle cx="22.6" cy="138" r="3.9"/>
	<circle cx="243.5" cy="135.8" r="3.9"/>
	<circle cx="7" cy="135.8" r="3.9"/>
	<circle cx="237.3" cy="146.9" r="3.9"/>
	<circle cx="13.1" cy="146.9" r="3.9"/>
	<circle cx="243.5" cy="158.9" r="3.9"/>
	<circle cx="7" cy="158.9" r="3.9"/>
	<circle cx="229.6" cy="165.8" r="3.9"/>
	<circle cx="20.9" cy="165.8" r="3.9"/>
	<circle cx="243.5" cy="173.6" r="3.9"/>
	<circle cx="7" cy="173.6" r="3.9"/>
	<path d="M13.8,256.2H3.1c-1.3,0-2.4,1.1-2.4,2.4s1.1,2.4,2.4,2.4h10.7c1.3,0,2.4-1.1,2.4-2.4S15.2,256.2,13.8,256.2 z"/>
	<path d="M247.4,256.2h-10.7c-1.3,0-2.4,1.1-2.4,2.4s1.1,2.4,2.4,2.4h10.7c1.3,0,2.4-1.1,2.4-2.4 S248.7,256.2,247.4,256.2z"/>
	<path d="M44.1,249.1h-11c-1.3,0-2.4,1.1-2.4,2.4s1.1,2.4,2.4,2.4h11c1.3,0,2.4-1.1,2.4-2.4S45.5,249.1,44.1,249.1z" />
	<path d="M217.3,249.1h-11c-1.3,0-2.4,1.1-2.4,2.4s1.1,2.4,2.4,2.4h11c1.3,0,2.4-1.1,2.4-2.4 S218.7,249.1,217.3,249.1z"/>
	<path d="M74.9,253H58.3c-1.3,0-2.4,1.1-2.4,2.4s1.1,2.4,2.4,2.4h16.6c1.3,0,2.4-1.1,2.4-2.4S76.2,253,74.9,253z"/>
	<path d="M192.1,253h-16.6c-1.3,0-2.4,1.1-2.4,2.4s1.1,2.4,2.4,2.4h16.6c1.3,0,2.4-1.1,2.4-2.4S193.4,253,192.1,253z "/>
	<path d="M74.9,268.4H61c-1.3,0-2.4,1.1-2.4,2.4s1.1,2.4,2.4,2.4h13.9c1.3,0,2.4-1.1,2.4-2.4S76.2,268.4,74.9,268.4z "/>
	<path d="M189.4,268.4h-13.9c-1.3,0-2.4,1.1-2.4,2.4s1.1,2.4,2.4,2.4h13.9c1.3,0,2.4-1.1,2.4-2.4 S190.7,268.4,189.4,268.4z"/>
	<path d="M42.4,264.8h-9.3c-1.3,0-2.4,1.1-2.4,2.4s1.1,2.4,2.4,2.4h9.3c1.3,0,2.4-1.1,2.4-2.4S43.8,264.8,42.4,264.8 z"/>
	<path d="M217.3,264.8H208c-1.3,0-2.4,1.1-2.4,2.4s1.1,2.4,2.4,2.4h9.3c1.3,0,2.4-1.1,2.4-2.4 S218.7,264.8,217.3,264.8z"/>
	<path d="M13.1,273.2h-10c-1.3,0-2.4,1.1-2.4,2.4s1.1,2.4,2.4,2.4h10c1.3,0,2.4-1.1,2.4-2.4S14.4,273.2,13.1,273.2z" />
	<path d="M247.4,273.2h-10c-1.3,0-2.4,1.1-2.4,2.4s1.1,2.4,2.4,2.4h10c1.3,0,2.4-1.1,2.4-2.4 S248.7,273.2,247.4,273.2z"/>
	<path d="M98.8,256.2H88.1c-1.3,0-2.4,1.1-2.4,2.4s1.1,2.4,2.4,2.4h10.7c1.3,0,2.4-1.1,2.4-2.4 S100.2,256.2,98.8,256.2z"/>
	<path d="M129.1,249.1h-11c-1.3,0-2.4,1.1-2.4,2.4s1.1,2.4,2.4,2.4h11c1.3,0,2.4-1.1,2.4-2.4 S130.5,249.1,129.1,249.1z"/>
	<path d="M159.9,253h-16.6c-1.3,0-2.4,1.1-2.4,2.4s1.1,2.4,2.4,2.4h16.6c1.3,0,2.4-1.1,2.4-2.4S161.2,253,159.9,253z "/>
	<path d="M159.9,268.4H146c-1.3,0-2.4,1.1-2.4,2.4s1.1,2.4,2.4,2.4h13.9c1.3,0,2.4-1.1,2.4-2.4 S161.2,268.4,159.9,268.4z"/>
	<path d="M127.4,264.8h-9.3c-1.3,0-2.4,1.1-2.4,2.4s1.1,2.4,2.4,2.4h9.3c1.3,0,2.4-1.1,2.4-2.4 S128.8,264.8,127.4,264.8z"/>
	<path d="M98.1,273.2h-10c-1.3,0-2.4,1.1-2.4,2.4s1.1,2.4,2.4,2.4h10c1.3,0,2.4-1.1,2.4-2.4S99.4,273.2,98.1,273.2z" />
	<path d="M81.3,144.8c0-1.3-1.1-2.4-2.4-2.4H65c-1.3,0-2.4,1.1-2.4,2.4s1.1,2.4,2.4,2.4h13.9 C80.2,147.2,81.3,146.1,81.3,144.8z"/>
	<path d="M169.3,152.2h6.7c1.3,0,2.4-1.1,2.4-2.4s-1.1-2.4-2.4-2.4h-6.7c-1.3,0-2.4,1.1-2.4,2.4 S168,152.2,169.3,152.2z"/>
	<path d="M172.3,138.2h6.7c1.3,0,2.4-1.1,2.4-2.4s-1.1-2.4-2.4-2.4h-6.7c-1.3,0-2.4,1.1-2.4,2.4 S171,138.2,172.3,138.2z"/>
	<path d="M82.4,156.7H71.1c-1.3,0-2.4,1.1-2.4,2.4s1.1,2.4,2.4,2.4h11.4c1.3,0,2.4-1.1,2.4-2.4 S83.7,156.7,82.4,156.7z"/>
	<path d="M111.9,177.2h-16c-1.3,0-2.4,1.1-2.4,2.4s1.1,2.4,2.4,2.4h16c1.3,0,2.4-1.1,2.4-2.4 S113.2,177.2,111.9,177.2z"/>
	<path d="M146.6,179.2h-16c-1.3,0-2.4,1.1-2.4,2.4s1.1,2.4,2.4,2.4h16c1.3,0,2.4-1.1,2.4-2.4 S147.9,179.2,146.6,179.2z"/>
	<path d="M101.2,138.6c0-1.3-1.1-2.4-2.4-2.4H88.1c-1.3,0-2.4,1.1-2.4,2.4s1.1,2.4,2.4,2.4h10.7 C100.2,141,101.2,139.9,101.2,138.6z"/>
	<path d="M145.3,139.8h16.6c1.3,0,2.4-1.1,2.4-2.4s-1.1-2.4-2.4-2.4h-16.6c-1.3,0-2.4,1.1-2.4,2.4 S144,139.8,145.3,139.8z"/>
	<path d="M144,151.2h13.9c1.3,0,2.4-1.1,2.4-2.4s-1.1-2.4-2.4-2.4H144c-1.3,0-2.4,1.1-2.4,2.4S142.7,151.2,144,151.2 z"/>
	<path d="M122.1,143.6h9.3c1.3,0,2.4-1.1,2.4-2.4c0-1.3-1.1-2.4-2.4-2.4h-9.3c-1.3,0-2.4,1.1-2.4,2.4 C119.7,142.5,120.8,143.6,122.1,143.6z"/>
	<path d="M89.7,149.6c0,1.3,1.1,2.4,2.4,2.4h10c1.3,0,2.4-1.1,2.4-2.4s-1.1-2.4-2.4-2.4h-10 C90.8,147.2,89.7,148.3,89.7,149.6z"/>
	<path d="M115.5,159.3h17.4c1.3,0,2.4-1.1,2.4-2.4s-1.1-2.4-2.4-2.4h-17.4c-1.3,0-2.4,1.1-2.4,2.4 S114.2,159.3,115.5,159.3z"/>
	<path d="M108.4,167.6c0-1.3-1.1-2.4-2.4-2.4H91.9c-1.3,0-2.4,1.1-2.4,2.4s1.1,2.4,2.4,2.4H106 C107.3,170,108.4,168.9,108.4,167.6z"/>
	<path d="M147.6,161.1c0,1.3,1.1,2.4,2.4,2.4h14.8c1.3,0,2.4-1.1,2.4-2.4s-1.1-2.4-2.4-2.4H150 C148.7,158.7,147.6,159.7,147.6,161.1z"/>
	<path d="M125.6,169.4c0,1.3,1.1,2.4,2.4,2.4h10.8c1.3,0,2.4-1.1,2.4-2.4s-1.1-2.4-2.4-2.4H128 C126.7,167,125.6,168.1,125.6,169.4z"/>
	<path d="M117.5,84.3c0.5,0.5,1.1,0.7,1.7,0.7s1.3-0.3,1.7-0.7l30.3-30.6c0.7-0.7,0.9-1.7,0.5-2.6 c-0.4-0.9-1.2-1.5-2.2-1.5h-12.7V3.1c0-1.3-1.1-2.4-2.4-2.4s-2.4,1.1-2.4,2.4V52c0,1.3,1.1,2.4,2.4,2.4h9.4l-24.5,24.8L94.7,54.4 h9.4c1.3,0,2.4-1.1,2.4-2.4V2.4c0-1.3-1.1-2.4-2.4-2.4s-2.4,1.1-2.4,2.4v47.2H89c-1,0-1.8,0.6-2.2,1.5c-0.4,0.9-0.2,1.9,0.5,2.6 L117.5,84.3z"/>
	<path d="M187.5,104.3c0.5,0.5,1.1,0.7,1.7,0.7s1.3-0.3,1.7-0.7l30.3-30.6c0.7-0.7,0.9-1.7,0.5-2.6 c-0.4-0.9-1.2-1.5-2.2-1.5h-12.7V23.1c0-1.3-1.1-2.4-2.4-2.4s-2.4,1.1-2.4,2.4V72c0,1.3,1.1,2.4,2.4,2.4h9.4l-24.5,24.8l-24.5-24.8 h9.4c1.3,0,2.4-1.1,2.4-2.4V22.4c0-1.3-1.1-2.4-2.4-2.4s-2.4,1.1-2.4,2.4v47.2H159c-1,0-1.8,0.6-2.2,1.5c-0.4,0.9-0.2,1.9,0.5,2.6 L187.5,104.3z"/>
	<path d="M43.5,104.3c0.5,0.5,1.1,0.7,1.7,0.7s1.3-0.3,1.7-0.7l30.3-30.6c0.7-0.7,0.9-1.7,0.5-2.6 c-0.4-0.9-1.2-1.5-2.2-1.5H62.7V23.1c0-1.3-1.1-2.4-2.4-2.4s-2.4,1.1-2.4,2.4V72c0,1.3,1.1,2.4,2.4,2.4h9.4L45.2,99.2L20.7,74.4 h9.4c1.3,0,2.4-1.1,2.4-2.4V22.4c0-1.3-1.1-2.4-2.4-2.4s-2.4,1.1-2.4,2.4v47.2H15c-1,0-1.8,0.6-2.2,1.5c-0.4,0.9-0.2,1.9,0.5,2.6 L43.5,104.3z"/>
	<path d="M158,100.2h-25.5c-0.9,0-1.6,0.5-2.1,1.2c-0.4,0.7-0.4,1.7,0,2.4l12.8,22.1c0.4,0.7,1.2,1.2,2.1,1.2 s1.6-0.5,2.1-1.2l12.8-22.1c0.4-0.7,0.4-1.7,0-2.4C159.6,100.7,158.8,100.2,158,100.2z M145.2,119.9l-8.6-14.9h17.2L145.2,119.9z" />
</svg>