<?xml version="1.0" encoding="utf-8"?>
<!-- Generator: Adobe Illustrator 21.0.0, SVG Export Plug-In . SVG Version: 6.00 Build 0)  -->
<svg version="1.1" baseProfile="basic" id="Слой_1"
	 xmlns="http://www.w3.org/2000/svg" xmlns:xlink="http://www.w3.org/1999/xlink" x="0px" y="0px" viewBox="0 0 245.3 251.2"
	 xml:space="preserve">
<g>
	<path fill="#010101" d="M93.6,1.3H14c-7.7,0-14,6.3-14,14v127.9c0,7.8,6.3,14.1,14.1,14.1h79.5c7.8,0,14.1-6.3,14.1-14.1V15.4
		C107.7,7.6,101.4,1.3,93.6,1.3z M102.9,143.3c0,5.1-4.2,9.3-9.3,9.3H14.1c-5.1,0-9.3-4.2-9.3-9.3V15.4c0-5.1,4.1-9.2,9.2-9.2h79.6
		c5.1,0,9.2,4.1,9.2,9.2V143.3z"/>
	<path fill="#010101" d="M90.8,16.7h-74c-1.3,0-2.4,1.1-2.4,2.4v25.7c0,1.3,1.1,2.4,2.4,2.4h74c1.3,0,2.4-1.1,2.4-2.4V19.1
		C93.2,17.7,92.1,16.7,90.8,16.7z M88.4,42.3H19.3V21.5h69.2V42.3z"/>
	<path fill="#010101" d="M86,58.6H75.9c-3.2,0-5.8,2.6-5.8,5.8v4.8c0,3,2.4,5.4,5.4,5.4h10.7c3,0,5.4-2.4,5.4-5.4v-4.8
		C91.8,61.1,89.2,58.6,86,58.6z M87,69.1c0,0.3-0.3,0.6-0.6,0.6H75.6c-0.3,0-0.6-0.3-0.6-0.6v-4.8c0-0.5,0.4-1,1-1H86
		c0.5,0,1,0.4,1,1V69.1z"/>
	<path fill="#010101" d="M85.8,81.1h-9.8c-3.3,0-5.9,2.7-5.9,5.9v4.1c0,3.3,2.7,6,6,6h9.6c3.3,0,6-2.7,6-6V87
		C91.8,83.8,89.1,81.1,85.8,81.1z M87,91.1c0,0.7-0.5,1.2-1.2,1.2h-9.6c-0.7,0-1.2-0.5-1.2-1.2V87c0-0.6,0.5-1.1,1.1-1.1h9.8
		c0.6,0,1.1,0.5,1.1,1.1V91.1z"/>
	<path fill="#010101" d="M85.8,103.7h-9.6c-3.3,0-6,2.7-6,6v4.1c0,3.2,2.6,5.8,5.8,5.8h10c3.2,0,5.8-2.6,5.8-5.8v-4.1
		C91.8,106.4,89.1,103.7,85.8,103.7z M87,113.8c0,0.6-0.5,1-1,1H76c-0.6,0-1-0.5-1-1v-4.1c0-0.7,0.5-1.2,1.2-1.2h9.6
		c0.7,0,1.2,0.5,1.2,1.2V113.8z"/>
	<path fill="#010101" d="M86.1,126.2H75.8c-3.1,0-5.6,2.5-5.6,5.6v4.4c0,3.3,2.6,5.9,5.9,5.9h9.8c3.3,0,5.9-2.6,5.9-5.9v-4.4
		C91.8,128.8,89.2,126.2,86.1,126.2z M87,136.3c0,0.6-0.5,1.1-1.1,1.1h-9.8c-0.6,0-1.1-0.5-1.1-1.1v-4.4c0-0.5,0.4-0.8,0.8-0.8h10.3
		c0.5,0,0.8,0.4,0.8,0.8V136.3z"/>
	<path fill="#010101" d="M30.3,58.6H20.2c-3.2,0-5.8,2.6-5.8,5.8v4.8c0,3,2.4,5.4,5.4,5.4h10.7c3,0,5.4-2.4,5.4-5.4v-4.8
		C36,61.1,33.5,58.6,30.3,58.6z M31.2,69.1c0,0.3-0.3,0.6-0.6,0.6H19.9c-0.3,0-0.6-0.3-0.6-0.6v-4.8c0-0.5,0.4-1,1-1h10.1
		c0.5,0,1,0.4,1,1V69.1z"/>
	<path fill="#010101" d="M30.1,81.1h-9.8c-3.3,0-5.9,2.7-5.9,5.9v4.1c0,3.3,2.7,6,6,6H30c3.3,0,6-2.7,6-6V87
		C36,83.8,33.4,81.1,30.1,81.1z M31.2,91.1c0,0.7-0.5,1.2-1.2,1.2h-9.6c-0.7,0-1.2-0.5-1.2-1.2V87c0-0.6,0.5-1.1,1.1-1.1h9.8
		c0.6,0,1.1,0.5,1.1,1.1V91.1z"/>
	<path fill="#010101" d="M30,103.7h-9.6c-3.3,0-6,2.7-6,6v4.1c0,3.2,2.6,5.8,5.8,5.8h10c3.2,0,5.8-2.6,5.8-5.8v-4.1
		C36,106.4,33.4,103.7,30,103.7z M31.2,113.8c0,0.6-0.5,1-1,1h-10c-0.6,0-1-0.5-1-1v-4.1c0-0.7,0.5-1.2,1.2-1.2H30
		c0.7,0,1.2,0.5,1.2,1.2V113.8z"/>
	<path fill="#010101" d="M30.4,126.2H20.1c-3.1,0-5.6,2.5-5.6,5.6v4.4c0,3.3,2.6,5.9,5.9,5.9h9.8c3.3,0,5.9-2.6,5.9-5.9v-4.4
		C36,128.8,33.5,126.2,30.4,126.2z M31.2,136.3c0,0.6-0.5,1.1-1.1,1.1h-9.8c-0.6,0-1.1-0.5-1.1-1.1v-4.4c0-0.5,0.4-0.8,0.8-0.8h10.3
		c0.5,0,0.8,0.4,0.8,0.8V136.3z"/>
	<path fill="#010101" d="M58.9,58.6H48.8c-3.2,0-5.8,2.6-5.8,5.8v4.8c0,3,2.4,5.4,5.4,5.4h10.7c3,0,5.4-2.4,5.4-5.4v-4.8
		C64.6,61.1,62,58.6,58.9,58.6z M59.8,69.1c0,0.3-0.3,0.6-0.6,0.6H48.5c-0.3,0-0.6-0.3-0.6-0.6v-4.8c0-0.5,0.4-1,1-1h10.1
		c0.5,0,1,0.4,1,1V69.1z"/>
	<path fill="#010101" d="M58.7,81.1H49c-3.3,0-5.9,2.7-5.9,5.9v4.1c0,3.3,2.7,6,6,6h9.6c3.3,0,6-2.7,6-6V87
		C64.6,83.8,62,81.1,58.7,81.1z M59.8,91.1c0,0.7-0.5,1.2-1.2,1.2h-9.6c-0.7,0-1.2-0.5-1.2-1.2V87c0-0.6,0.5-1.1,1.1-1.1h9.8
		c0.6,0,1.1,0.5,1.1,1.1V91.1z"/>
	<path fill="#010101" d="M58.6,103.7H49c-3.3,0-6,2.7-6,6v4.1c0,3.2,2.6,5.8,5.8,5.8h10c3.2,0,5.8-2.6,5.8-5.8v-4.1
		C64.6,106.4,61.9,103.7,58.6,103.7z M59.8,113.8c0,0.6-0.5,1-1,1h-10c-0.6,0-1-0.5-1-1v-4.1c0-0.7,0.5-1.2,1.2-1.2h9.6
		c0.7,0,1.2,0.5,1.2,1.2V113.8z"/>
	<path fill="#010101" d="M59,126.2H48.7c-3.1,0-5.6,2.5-5.6,5.6v4.4c0,3.3,2.6,5.9,5.9,5.9h9.8c3.3,0,5.9-2.6,5.9-5.9v-4.4
		C64.6,128.8,62.1,126.2,59,126.2z M59.8,136.3c0,0.6-0.5,1.1-1.1,1.1h-9.8c-0.6,0-1.1-0.5-1.1-1.1v-4.4c0-0.5,0.4-0.8,0.8-0.8H59
		c0.5,0,0.8,0.4,0.8,0.8V136.3z"/>
	<path fill="#010101" d="M183.9,67.4c5,0,9.2-4.1,9.2-9.2c0-5-4.1-9.2-9.2-9.2s-9.2,4.1-9.2,9.2C174.7,63.3,178.8,67.4,183.9,67.4z
		 M183.9,53.9c2.4,0,4.4,2,4.4,4.4s-2,4.4-4.4,4.4s-4.4-2-4.4-4.4S181.5,53.9,183.9,53.9z"/>
	<path fill="#010101" d="M245.2,219l-24.3-88h15.9c1.3,0,2.4-1.1,2.4-2.4s-1.1-2.4-2.4-2.4h-17.2l-16.7-60.7
		c0.9-2.2,1.4-4.7,1.4-7.2c0-7.3-3.9-13.7-9.7-17.3V2.4c0-1.3-1.1-2.4-2.4-2.4h-16.4c-1.3,0-2.4,1.1-2.4,2.4V41
		c-5.8,3.6-9.7,10-9.7,17.3c0,2.5,0.5,5,1.3,7.2l-16.7,60.7h-17.2c-1.3,0-2.4,1.1-2.4,2.4s1.1,2.4,2.4,2.4h15.9l-24.3,88
		c-0.2,0.8,0,1.6,0.5,2.2l9.8,11.8l-4.2,15.2c-0.4,1.3,0.4,2.6,1.7,3c0.2,0.1,0.4,0.1,0.6,0.1c1.1,0,2-0.7,2.3-1.8l4.5-16.4
		c0,0,0,0,0-0.1l28.1-102h36L230,233c0,0,0,0,0,0.1l4.5,16.4c0.3,1.1,1.3,1.8,2.3,1.8c0.2,0,0.4,0,0.6-0.1c1.3-0.4,2-1.7,1.7-3
		l-4.2-15.2l9.8-11.8C245.2,220.6,245.4,219.7,245.2,219z M178.1,4.8h11.6v34c-1.8-0.6-3.8-0.9-5.8-0.9c-2,0-4,0.3-5.8,0.9V4.8z
		 M183.9,42.7c8.6,0,15.5,7,15.5,15.5c0,7-4.6,12.9-11,14.8c0,0,0,0,0,0c0,0,0,0,0,0c-1.4,0.4-2.9,0.7-4.5,0.7
		c-8.5,0-15.5-7-15.5-15.5S175.3,42.7,183.9,42.7z M127.6,219.1l40.8-147.8c2,2.4,4.6,4.4,7.5,5.6l-41.5,150.4L127.6,219.1z
		 M167.2,126.2l13.2-48c1.1,0.2,2.3,0.3,3.4,0.3c1.2,0,2.3-0.1,3.4-0.3l13.2,48H167.2z M233.4,227.3L191.9,76.9
		c2.9-1.3,5.5-3.2,7.5-5.6l40.8,147.8L233.4,227.3z"/>
</g>
</svg>
