<?xml version="1.0" encoding="utf-8"?>
<!-- Generator: Adobe Illustrator 21.0.0, SVG Export Plug-In . SVG Version: 6.00 Build 0)  -->
<svg version="1.1" baseProfile="basic" id="Слой_1"
	 xmlns="http://www.w3.org/2000/svg" xmlns:xlink="http://www.w3.org/1999/xlink" x="0px" y="0px" viewBox="0 0 250 278"
	 xml:space="preserve">
<g>
	<path fill="#010101" d="M13.8,256.2H3.1c-1.3,0-2.4,1.1-2.4,2.4s1.1,2.4,2.4,2.4h10.7c1.3,0,2.4-1.1,2.4-2.4S15.2,256.2,13.8,256.2
		z"/>
	<path fill="#010101" d="M247.4,256.2h-10.7c-1.3,0-2.4,1.1-2.4,2.4s1.1,2.4,2.4,2.4h10.7c1.3,0,2.4-1.1,2.4-2.4
		S248.7,256.2,247.4,256.2z"/>
	<path fill="#010101" d="M74.9,268.4H61c-1.3,0-2.4,1.1-2.4,2.4s1.1,2.4,2.4,2.4h13.9c1.3,0,2.4-1.1,2.4-2.4S76.2,268.4,74.9,268.4z
		"/>
	<path fill="#010101" d="M189.4,268.4h-13.9c-1.3,0-2.4,1.1-2.4,2.4s1.1,2.4,2.4,2.4h13.9c1.3,0,2.4-1.1,2.4-2.4
		S190.7,268.4,189.4,268.4z"/>
	<path fill="#010101" d="M42.4,264.8h-9.3c-1.3,0-2.4,1.1-2.4,2.4s1.1,2.4,2.4,2.4h9.3c1.3,0,2.4-1.1,2.4-2.4S43.8,264.8,42.4,264.8
		z"/>
	<path fill="#010101" d="M217.3,264.8H208c-1.3,0-2.4,1.1-2.4,2.4s1.1,2.4,2.4,2.4h9.3c1.3,0,2.4-1.1,2.4-2.4
		S218.7,264.8,217.3,264.8z"/>
	<path fill="#010101" d="M13.1,273.2h-10c-1.3,0-2.4,1.1-2.4,2.4s1.1,2.4,2.4,2.4h10c1.3,0,2.4-1.1,2.4-2.4S14.4,273.2,13.1,273.2z"
		/>
	<path fill="#010101" d="M247.4,273.2h-10c-1.3,0-2.4,1.1-2.4,2.4s1.1,2.4,2.4,2.4h10c1.3,0,2.4-1.1,2.4-2.4
		S248.7,273.2,247.4,273.2z"/>
	<path fill="#010101" d="M98.8,256.2H88.1c-1.3,0-2.4,1.1-2.4,2.4s1.1,2.4,2.4,2.4h10.7c1.3,0,2.4-1.1,2.4-2.4
		S100.2,256.2,98.8,256.2z"/>
	<path fill="#010101" d="M159.9,268.4H146c-1.3,0-2.4,1.1-2.4,2.4s1.1,2.4,2.4,2.4h13.9c1.3,0,2.4-1.1,2.4-2.4
		S161.2,268.4,159.9,268.4z"/>
	<path fill="#010101" d="M127.4,264.8h-9.3c-1.3,0-2.4,1.1-2.4,2.4s1.1,2.4,2.4,2.4h9.3c1.3,0,2.4-1.1,2.4-2.4
		S128.8,264.8,127.4,264.8z"/>
	<path fill="#010101" d="M98.1,273.2h-10c-1.3,0-2.4,1.1-2.4,2.4s1.1,2.4,2.4,2.4h10c1.3,0,2.4-1.1,2.4-2.4S99.4,273.2,98.1,273.2z"
		/>
	<path fill="#010101" d="M247.4,243.8c-8.5,0-13.4-0.9-17.8-2.1l19.2-19.2c0.9-0.9,0.9-2.5,0-3.4s-2.5-0.9-3.4,0l-21.2,21.2
		c-3.9-1-8.3-1.9-14.9-2.2l40-40c0.9-0.9,0.9-2.5,0-3.4s-2.5-0.9-3.4,0L202.6,238c-9.4,0.2-14.6,1.6-19.6,3
		c-0.2,0.1-0.5,0.1-0.7,0.2l52.4-52.4c3.3-0.6,7.3-1,12.7-1c1.3,0,2.4-1.1,2.4-2.4s-1.1-2.4-2.4-2.4c-5.6,0-9.9,0.4-13.4,1
		c-0.5-0.1-1,0-1.5,0.3c-2.6,0.5-4.8,1.1-7,1.7c-5.3,1.5-10.3,2.8-20.6,2.8c-10.4,0-17.5-1.4-25.1-2.9c-5.8-1.1-11.7-2.3-19.2-2.7
		c3.1-2.6,6-5.2,7.8-7.1c4.4-4.4,12.3-14.6,15.4-20.6c2.5-4.9,6-15.4,6.9-20.8c0.5-3.1,2.5-6.7,6.4-6.7h50.2c1.3,0,2.4-1.1,2.4-2.4
		s-1.1-2.4-2.4-2.4h-50.2c-5.6,0-10.1,4.3-11.1,10.7c-0.8,5-4.1,15-6.4,19.4c-2.9,5.5-10.4,15.2-14.6,19.4
		c-2.9,2.9-7.7,7.2-12.2,10.4c-0.3,0.1-0.6,0.4-0.9,0.6c-2.2,1.5-4.3,2.8-6,3.4c-6.9,2.4-22.6,2.1-30.9,0.9
		c-10.4-1.5-30.8-7.1-39-12.6c-5.4-3.6-14.7-13.9-17.1-19.9c-1.7-4.1-2.2-13.4-2.5-19c0-0.9-0.1-1.7-0.1-2.4
		c-0.4-6.3-5.2-11-11.1-11H2.9c-1.3,0-2.4,1.1-2.4,2.4s1.1,2.4,2.4,2.4h42.2c3.4,0,6.1,2.8,6.3,6.5c0,0.7,0.1,1.5,0.1,2.4
		c0.4,6.2,0.9,15.6,2.9,20.5c2.8,6.9,12.9,18.1,18.9,22.1c2.1,1.4,5,2.8,8.2,4.2c-5,0.6-9.1,1.5-13,2.3c-6.6,1.5-12.8,2.8-23.1,2.8
		c-10.3,0-15.3-1.4-20.6-2.8c-5.4-1.5-10.9-3-21.9-3c-1.3,0-2.4,1.1-2.4,2.4s1.1,2.4,2.4,2.4c4,0,7.2,0.2,9.9,0.5L0.7,200.5
		c-0.9,0.9-0.9,2.5,0,3.4c0.5,0.5,1.1,0.7,1.7,0.7s1.2-0.2,1.7-0.7l14.5-14.5c1.7,0.4,3.3,0.8,4.9,1.3c2.7,0.7,5.5,1.5,8.9,2.1
		L0.7,224.5c-0.9,0.9-0.9,2.5,0,3.4c0.5,0.5,1.1,0.7,1.7,0.7s1.2-0.2,1.7-0.7l34.4-34.4c2,0.1,4.3,0.2,6.9,0.2c4,0,7.5-0.2,10.6-0.5
		L5.3,243.8c-0.8,0-1.6,0-2.4,0c-1.3,0-2.4,1.1-2.4,2.4s1.1,2.4,2.4,2.4c10.9,0,16.5-1.5,21.9-3c3.1-0.8,6.1-1.7,10-2.2
		c0.2,0,0.4,0.1,0.5,0.1c0.4,0,0.7-0.1,1.1-0.3c2.5-0.3,5.4-0.4,9-0.4c5.2,0,9.1,0.4,12.3,0.9c0.3,0.2,0.7,0.3,1.1,0.3
		c0.1,0,0.2,0,0.3,0c2.5,0.5,4.7,1.1,6.9,1.7c5,1.4,10.1,2.8,19.6,3c0.1,0,0.2,0,0.3,0h2c0.1,0,0.2,0,0.3,0c9.5-0.2,14.6-1.6,19.6-3
		c5.3-1.5,10.3-2.8,20.6-2.8c1.1,0,2.1,0,3.1,0c0.1,0,0.2,0,0.2,0c0,0,0.1,0,0.1,0c7.4,0.3,10,1.4,12.7,2.6c1.3,0.6,2.7,1.2,4.5,1.7
		c0.5,0.4,1,0.6,1.6,0.6c0.2,0,0.4,0,0.6-0.1c2.6,0.5,6,0.9,11,0.9c0,0,0,0,0.1,0h0.3c0,0,0,0,0.1,0c4.8,0,8.6-0.3,11.8-0.8
		c0,0,0.1,0,0.1,0c0.3,0,0.5-0.1,0.8-0.1c3.4-0.6,6.1-1.3,8.8-2c5.3-1.5,10.3-2.8,20.6-2.8c8.5,0,13.4,0.9,17.9,2.1
		c0,0,0.1,0.1,0.1,0.1c0.5,0.5,1.1,0.7,1.7,0.7c0.3,0,0.5-0.1,0.8-0.1c0,0,0.1,0,0.1,0c5.4,1.5,10.9,3,21.9,3c1.3,0,2.4-1.1,2.4-2.4
		S248.7,243.8,247.4,243.8z M34.4,238.7c-4.4,0.6-7.7,1.5-10.9,2.3c-3.3,0.9-6.5,1.8-10.9,2.3L64,191.9c1.9-0.4,3.8-0.8,5.6-1.2
		c4.7-1,9.3-2,15.3-2.5L34.4,238.7z M58.1,238.9c-3.4-0.5-7.4-0.9-12.7-0.9c-1.3,0-2.5,0-3.6,0.1l50.2-50.2c0.3,0,0.5,0,0.8,0
		c0.2,0,0.3,0,0.5,0c4.3,1.3,8.6,2.5,12.6,3.4L58.1,238.9z M67.3,241c-1.2-0.3-2.3-0.6-3.6-0.9l47.7-47.7c1.1,0.2,2.1,0.4,3,0.5
		c3,0.4,7.7,0.8,12.8,0.9l-49.5,49.5C73.5,242.7,70.4,241.9,67.3,241z M102.9,242c-4,1-8.6,1.8-16,1.9c-1,0-2,0-2.9-0.1l50-50
		c5.2-0.2,10.1-0.8,13.5-2c2.1-0.7,4.6-2.2,7.1-3.9c0.8,0,1.6,0,2.4,0L102.9,242z M130.8,238c-0.8,0-1.5,0-2.4,0
		c-7.4,0-12.3,0.7-16.3,1.6l51.3-51.3c5.4,0.5,10.1,1.4,14.8,2.3L130.8,238z M150.2,242.5c-1.4-0.4-2.5-0.9-3.7-1.4
		c-2.3-1-4.7-2.1-9.4-2.7l46.8-46.8c4.6,0.8,9.5,1.6,15.3,1.8L150.2,242.5z M173.6,243.1c-3,0.4-6.5,0.7-11,0.7
		c-2.7,0-4.8-0.1-6.6-0.3l49.9-49.9c9.6-0.1,14.9-1.4,19.9-2.7L173.6,243.1z"/>
	<circle fill="#010101" cx="196" cy="135.8" r="3.9"/>
	<circle fill="#010101" cx="191" cy="150.8" r="3.9"/>
	<circle fill="#010101" cx="57.5" cy="179.8" r="3.9"/>
	<circle fill="#010101" cx="174.7" cy="178.6" r="3.9"/>
	<circle fill="#010101" cx="185.5" cy="165.8" r="3.9"/>
	<circle fill="#010101" cx="194.9" cy="181.4" r="3.9"/>
	<circle fill="#010101" cx="198.8" cy="165.8" r="3.9"/>
	<circle fill="#010101" cx="51.7" cy="165.8" r="3.9"/>
	<circle fill="#010101" cx="208.7" cy="178.7" r="3.9"/>
	<circle fill="#010101" cx="41.8" cy="178.7" r="3.9"/>
	<circle fill="#010101" cx="221.2" cy="177.5" r="3.9"/>
	<circle fill="#010101" cx="29.2" cy="177.5" r="3.9"/>
	<circle fill="#010101" cx="213.4" cy="163" r="3.9"/>
	<circle fill="#010101" cx="37" cy="163" r="3.9"/>
	<circle fill="#010101" cx="206.5" cy="150.8" r="3.9"/>
	<circle fill="#010101" cx="43.9" cy="150.8" r="3.9"/>
	<circle fill="#010101" cx="213.4" cy="139.7" r="3.9"/>
	<circle fill="#010101" cx="37" cy="139.7" r="3.9"/>
	<circle fill="#010101" cx="223.9" cy="154.7" r="3.9"/>
	<circle fill="#010101" cx="26.5" cy="154.7" r="3.9"/>
	<circle fill="#010101" cx="227.8" cy="138" r="3.9"/>
	<circle fill="#010101" cx="22.6" cy="138" r="3.9"/>
	<circle fill="#010101" cx="243.5" cy="135.8" r="3.9"/>
	<circle fill="#010101" cx="7" cy="135.8" r="3.9"/>
	<circle fill="#010101" cx="237.3" cy="146.9" r="3.9"/>
	<circle fill="#010101" cx="13.1" cy="146.9" r="3.9"/>
	<circle fill="#010101" cx="243.5" cy="158.9" r="3.9"/>
	<circle fill="#010101" cx="7" cy="158.9" r="3.9"/>
	<circle fill="#010101" cx="229.6" cy="165.8" r="3.9"/>
	<circle fill="#010101" cx="20.9" cy="165.8" r="3.9"/>
	<circle fill="#010101" cx="243.5" cy="173.6" r="3.9"/>
	<circle fill="#010101" cx="7" cy="173.6" r="3.9"/>
	<path fill="#010101" d="M44.1,249.1h-11c-1.3,0-2.4,1.1-2.4,2.4s1.1,2.4,2.4,2.4h11c1.3,0,2.4-1.1,2.4-2.4S45.5,249.1,44.1,249.1z"
		/>
	<path fill="#010101" d="M217.3,249.1h-11c-1.3,0-2.4,1.1-2.4,2.4s1.1,2.4,2.4,2.4h11c1.3,0,2.4-1.1,2.4-2.4
		S218.7,249.1,217.3,249.1z"/>
	<path fill="#010101" d="M74.9,253H58.3c-1.3,0-2.4,1.1-2.4,2.4s1.1,2.4,2.4,2.4h16.6c1.3,0,2.4-1.1,2.4-2.4S76.2,253,74.9,253z"/>
	<path fill="#010101" d="M192.1,253h-16.6c-1.3,0-2.4,1.1-2.4,2.4s1.1,2.4,2.4,2.4h16.6c1.3,0,2.4-1.1,2.4-2.4S193.4,253,192.1,253z
		"/>
	<path fill="#010101" d="M129.1,249.1h-11c-1.3,0-2.4,1.1-2.4,2.4s1.1,2.4,2.4,2.4h11c1.3,0,2.4-1.1,2.4-2.4
		S130.5,249.1,129.1,249.1z"/>
	<path fill="#010101" d="M159.9,253h-16.6c-1.3,0-2.4,1.1-2.4,2.4s1.1,2.4,2.4,2.4h16.6c1.3,0,2.4-1.1,2.4-2.4S161.2,253,159.9,253z
		"/>
	<path fill="#010101" d="M59.9,129.4c0,1.3,1.1,2.4,2.4,2.4h16.6c1.3,0,2.4-1.1,2.4-2.4s-1.1-2.4-2.4-2.4H62.3
		C61,127,59.9,128.1,59.9,129.4z"/>
	<path fill="#010101" d="M81.3,144.8c0-1.3-1.1-2.4-2.4-2.4H65c-1.3,0-2.4,1.1-2.4,2.4s1.1,2.4,2.4,2.4h13.9
		C80.2,147.2,81.3,146.1,81.3,144.8z"/>
	<path fill="#010101" d="M169.3,152.2h6.7c1.3,0,2.4-1.1,2.4-2.4s-1.1-2.4-2.4-2.4h-6.7c-1.3,0-2.4,1.1-2.4,2.4
		S168,152.2,169.3,152.2z"/>
	<path fill="#010101" d="M181.5,135.8c0-1.3-1.1-2.4-2.4-2.4h-6.7c-1.3,0-2.4,1.1-2.4,2.4s1.1,2.4,2.4,2.4h6.7
		C180.4,138.2,181.5,137.1,181.5,135.8z"/>
	<path fill="#010101" d="M68.7,159.1c0,1.3,1.1,2.4,2.4,2.4h11.4c1.3,0,2.4-1.1,2.4-2.4s-1.1-2.4-2.4-2.4H71.1
		C69.7,156.7,68.7,157.7,68.7,159.1z"/>
	<path fill="#010101" d="M95.9,182h16c1.3,0,2.4-1.1,2.4-2.4s-1.1-2.4-2.4-2.4h-16c-1.3,0-2.4,1.1-2.4,2.4S94.5,182,95.9,182z"/>
	<path fill="#010101" d="M130.5,184h16c1.3,0,2.4-1.1,2.4-2.4s-1.1-2.4-2.4-2.4h-16c-1.3,0-2.4,1.1-2.4,2.4S129.2,184,130.5,184z"/>
	<path fill="#010101" d="M92.1,135h10.7c1.3,0,2.4-1.1,2.4-2.4s-1.1-2.4-2.4-2.4H92.1c-1.3,0-2.4,1.1-2.4,2.4S90.8,135,92.1,135z"/>
	<path fill="#010101" d="M122.1,127.9h11c1.3,0,2.4-1.1,2.4-2.4s-1.1-2.4-2.4-2.4h-11c-1.3,0-2.4,1.1-2.4,2.4
		S120.8,127.9,122.1,127.9z"/>
	<path fill="#010101" d="M166.3,129.4c0-1.3-1.1-2.4-2.4-2.4h-16.6c-1.3,0-2.4,1.1-2.4,2.4s1.1,2.4,2.4,2.4h16.6
		C165.2,131.8,166.3,130.7,166.3,129.4z"/>
	<path fill="#010101" d="M161.9,142.4H148c-1.3,0-2.4,1.1-2.4,2.4s1.1,2.4,2.4,2.4h13.9c1.3,0,2.4-1.1,2.4-2.4
		S163.2,142.4,161.9,142.4z"/>
	<path fill="#010101" d="M122.1,143.6h9.3c1.3,0,2.4-1.1,2.4-2.4c0-1.3-1.1-2.4-2.4-2.4h-9.3c-1.3,0-2.4,1.1-2.4,2.4
		C119.7,142.5,120.8,143.6,122.1,143.6z"/>
	<path fill="#010101" d="M92.1,152h10c1.3,0,2.4-1.1,2.4-2.4s-1.1-2.4-2.4-2.4h-10c-1.3,0-2.4,1.1-2.4,2.4S90.8,152,92.1,152z"/>
	<path fill="#010101" d="M132.9,159.3c1.3,0,2.4-1.1,2.4-2.4s-1.1-2.4-2.4-2.4h-17.4c-1.3,0-2.4,1.1-2.4,2.4s1.1,2.4,2.4,2.4H132.9z
		"/>
	<path fill="#010101" d="M91.9,170H106c1.3,0,2.4-1.1,2.4-2.4s-1.1-2.4-2.4-2.4H91.9c-1.3,0-2.4,1.1-2.4,2.4S90.6,170,91.9,170z"/>
	<path fill="#010101" d="M164.8,163.5c1.3,0,2.4-1.1,2.4-2.4s-1.1-2.4-2.4-2.4H150c-1.3,0-2.4,1.1-2.4,2.4s1.1,2.4,2.4,2.4H164.8z"
		/>
	<path fill="#010101" d="M128,171.8h10.8c1.3,0,2.4-1.1,2.4-2.4s-1.1-2.4-2.4-2.4H128c-1.3,0-2.4,1.1-2.4,2.4S126.7,171.8,128,171.8
		z"/>
	<path fill="#010101" d="M117.5,84.3c0.5,0.5,1.1,0.7,1.7,0.7s1.3-0.3,1.7-0.7l30.3-30.6c0.7-0.7,0.9-1.7,0.5-2.6
		c-0.4-0.9-1.2-1.5-2.2-1.5h-12.7V3.1c0-1.3-1.1-2.4-2.4-2.4s-2.4,1.1-2.4,2.4V52c0,1.3,1.1,2.4,2.4,2.4h9.4l-24.5,24.8L94.7,54.4
		h9.4c1.3,0,2.4-1.1,2.4-2.4V2.4c0-1.3-1.1-2.4-2.4-2.4s-2.4,1.1-2.4,2.4v47.2H89c-1,0-1.8,0.6-2.2,1.5c-0.4,0.9-0.2,1.9,0.5,2.6
		L117.5,84.3z"/>
	<path fill="#010101" d="M187.5,104.3c0.5,0.5,1.1,0.7,1.7,0.7s1.3-0.3,1.7-0.7l30.3-30.6c0.7-0.7,0.9-1.7,0.5-2.6
		c-0.4-0.9-1.2-1.5-2.2-1.5h-12.7V23.1c0-1.3-1.1-2.4-2.4-2.4s-2.4,1.1-2.4,2.4V72c0,1.3,1.1,2.4,2.4,2.4h9.4l-24.5,24.8l-24.5-24.8
		h9.4c1.3,0,2.4-1.1,2.4-2.4V22.4c0-1.3-1.1-2.4-2.4-2.4s-2.4,1.1-2.4,2.4v47.2H159c-1,0-1.8,0.6-2.2,1.5c-0.4,0.9-0.2,1.9,0.5,2.6
		L187.5,104.3z"/>
	<path fill="#010101" d="M43.5,104.3c0.5,0.5,1.1,0.7,1.7,0.7s1.3-0.3,1.7-0.7l30.3-30.6c0.7-0.7,0.9-1.7,0.5-2.6
		c-0.4-0.9-1.2-1.5-2.2-1.5H62.7V23.1c0-1.3-1.1-2.4-2.4-2.4s-2.4,1.1-2.4,2.4V72c0,1.3,1.1,2.4,2.4,2.4h9.4L45.2,99.2L20.7,74.4
		h9.4c1.3,0,2.4-1.1,2.4-2.4V22.4c0-1.3-1.1-2.4-2.4-2.4s-2.4,1.1-2.4,2.4v47.2H15c-1,0-1.8,0.6-2.2,1.5c-0.4,0.9-0.2,1.9,0.5,2.6
		L43.5,104.3z"/>
</g>
</svg>
