<?xml version="1.0" encoding="utf-8"?>
<!-- Generator: Adobe Illustrator 21.0.0, SVG Export Plug-In . SVG Version: 6.00 Build 0)  -->
<svg version="1.1" baseProfile="basic" id="Слой_1"
	 xmlns="http://www.w3.org/2000/svg" xmlns:xlink="http://www.w3.org/1999/xlink" x="0px" y="0px" viewBox="0 0 175.9 249.2"
	 xml:space="preserve">
<g>
	<path fill="#010101" d="M88,124.5c12.6,0,22.8-10.2,22.8-22.8c0-12.6-10.2-22.8-22.8-22.8s-22.8,10.2-22.8,22.8
		C65.2,114.3,75.4,124.5,88,124.5z M88,83.7c9.9,0,18,8.1,18,18c0,9.9-8.1,18-18,18s-18-8.1-18-18C70,91.8,78.1,83.7,88,83.7z"/>
	<path fill="#010101" d="M46,204.9h48.5c1.3,0,2.4-1.1,2.4-2.4v-23.4c0-1.3-1.1-2.4-2.4-2.4H46c-1.3,0-2.4,1.1-2.4,2.4v23.4
		C43.6,203.8,44.7,204.9,46,204.9z M48.4,181.5h43.7v18.6H48.4V181.5z"/>
	<path fill="#010101" d="M173.5,83.9h-9.9V42.1c0-3.9-1.5-7.6-4.3-10.4L133.5,5.9c-3.8-3.8-8.8-5.9-14.2-5.9H56.7
		c-5.4,0-10.4,2.1-14.2,5.9L16.6,31.7c-2.8,2.8-4.3,6.5-4.3,10.4v135.4H2.4c-1.3,0-2.4,1.1-2.4,2.4v22.6c0,1.3,1.1,2.4,2.4,2.4h9.9
		v4.4c0,5.8,4.7,10.6,10.6,10.6H31l11.6,10.8c-4.1,0.2-7.4,3.6-7.4,7.8v3c0,4.3,3.5,7.8,7.8,7.8h89.9c4.3,0,7.8-3.5,7.8-7.8v-3
		c0-4.2-3.3-7.6-7.4-7.8l11.6-10.8h8.1c5.8,0,10.6-4.7,10.6-10.6v-97h9.9c1.3,0,2.4-1.1,2.4-2.4V86.3
		C175.9,85,174.8,83.9,173.5,83.9z M4.8,200.1v-17.8h7.5v17.8H4.8z M56.8,79l3.2-7.6c1.9-4.4,6.2-7.3,11.1-7.3h33.7
		c4.8,0,9.2,2.9,11.1,7.3l3.2,7.6v45.4l-3.2,7.6c-1.9,4.4-6.2,7.3-11.1,7.3H71.1c-4.8,0-9.2-2.9-11.1-7.3l-3.2-7.6V79z M119.2,67.4
		c-3-5-8.4-8.1-14.4-8.1H71.1c-5.9,0-11.3,3.1-14.4,8.1c-0.3-5.4-2.5-10.4-6.4-14.3l-5.8-5.8c-2.5-2.5-2.5-6.4,0-8.9l11-11
		c2.6-2.6,6-4,9.6-4h45.5c3.6,0,7,1.4,9.6,4l11,11c2.5,2.5,2.5,6.4,0,8.9l-5.8,5.8C121.7,56.9,119.5,62,119.2,67.4z M56.8,136.1
		c3,4.9,8.4,8,14.3,8h33.7c5.9,0,11.3-3.1,14.3-8v27.4H56.8V136.1z M134.1,168.4c4.6,0,8.4,3.8,8.4,8.4v38.3h-109v-38.3
		c0-4.6,3.8-8.4,8.4-8.4H134.1z M49.7,230.7l-11.6-10.8h99.8l-11.6,10.8H49.7z M135.9,238.5v3c0,1.7-1.3,3-3,3H43.1
		c-1.6,0-3-1.3-3-3v-3c0-1.7,1.3-3,3-3h89.9C134.6,235.5,135.9,236.8,135.9,238.5z M158.8,209.3c0,3.2-2.6,5.8-5.8,5.8h-5.8v-38.3
		c0-7.3-5.9-13.2-13.2-13.2h-10.2v-38.6c0,0,0,0,0,0V78.5c0,0,0,0,0,0v-9.9c0-4.6,1.8-8.9,5-12.1l5.8-5.8c4.3-4.3,4.3-11.4,0-15.7
		l-11-11c-3.5-3.5-8.1-5.4-13-5.4H65.2c-4.9,0-9.5,1.9-13,5.4l-11,11c-4.3,4.3-4.3,11.4,0,15.7l5.8,5.8c3.2,3.2,5,7.5,5,12.1v9.9
		c0,0,0,0,0,0v46.4c0,0,0,0,0,0v38.6H41.9c-7.3,0-13.2,5.9-13.2,13.2v38.3h-5.8c-3.2,0-5.8-2.6-5.8-5.8V42.1c0-2.6,1-5.1,2.9-7
		L45.9,9.3c2.9-2.9,6.7-4.5,10.8-4.5h62.7c4.1,0,7.9,1.6,10.8,4.5l25.8,25.8c1.9,1.9,2.9,4.3,2.9,7V209.3z M171.1,107.5h-7.5V88.7
		h7.5V107.5z"/>
	<circle fill="#010101" cx="113" cy="182.6" r="5.6"/>
	<circle fill="#010101" cx="130.3" cy="182.6" r="5.6"/>
	<circle fill="#010101" cx="113" cy="200.1" r="5.6"/>
	<circle fill="#010101" cx="130.3" cy="200.1" r="5.4"/>
</g>
</svg>
