<?xml version="1.0" encoding="utf-8"?>
<!-- Generator: Adobe Illustrator 21.0.0, SVG Export Plug-In . SVG Version: 6.00 Build 0)  -->
<svg version="1.1" baseProfile="basic" id="Слой_1"
	 xmlns="http://www.w3.org/2000/svg" xmlns:xlink="http://www.w3.org/1999/xlink" x="0px" y="0px" viewBox="0 0 249.2 249.2"
	 xml:space="preserve">
<g>
	<path fill="#010101" d="M128.8,156c-16.7,0-52-23.2-52-49c0-9.7,7.7-15.8,20.2-15.8c6.4,0,8.8,3.2,10.8,5.8c1.7,2.3,3,3.9,7,3.9
		c3,0,4.8-1.7,7.1-3.9c2.8-2.6,6.2-5.8,12.1-5.8c7,0,23.1,2.7,23.1,27.6C157.1,140.7,145.4,156,128.8,156z M96.9,96
		c-4.6,0-15.4,1.1-15.4,11c0,10,6.6,21.2,18.1,30.6c9.7,8,21.7,13.6,29.1,13.6c13.9,0,23.5-13.3,23.5-32.4c0-8.5-2.4-22.8-18.3-22.8
		c-4.1,0-6.3,2.1-8.9,4.5c-2.6,2.4-5.5,5.2-10.4,5.2c-6.4,0-8.8-3.2-10.8-5.8C102.2,97.7,100.9,96,96.9,96z"/>
	<path fill="#010101" d="M131.6,172.6c-13.6,0-21.6-4.1-28.7-7.8c-6.1-3.1-11.3-5.8-19.4-5.8c-21.3,0-33.5-16-33.5-43.8
		c0-29.6,10.8-44.7,32-44.7c14.6,0,22.4,2.7,27,4.2c1.5,0.5,2.8,0.9,3.3,0.9c4.8,0,8.3-2,12.1-4c4.1-2.3,8.7-4.9,15.3-4.9
		c13.7,0,32.8,13.6,32.8,35.7c0,10.2-3.2,27.4-10.4,42.9C151.8,167.9,139.8,172.6,131.6,172.6z M82.1,75.3
		c-18.3,0-27.2,13-27.2,39.9c0,25.2,10.2,39,28.7,39c9.2,0,15.2,3.1,21.6,6.4c6.9,3.5,14,7.2,26.5,7.2c22.5,0,36.2-45.3,36.2-65.2
		c0-20.6-17.9-30.9-28-30.9c-5.4,0-9.1,2.1-13,4.2c-4.1,2.3-8.3,4.6-14.4,4.6c-1.4,0-2.9-0.5-4.9-1.2
		C103.2,77.8,95.9,75.3,82.1,75.3z"/>
	<path fill="#010101" d="M131.6,191.6c-11.1,0-19.4-3.1-28.3-6.4c-9.1-3.4-18.6-6.9-31.6-6.9c-12.6,0-24.1-6.3-32.4-17.8
		c-7.3-10.1-11.5-23.2-11.5-35.9c0-23.2,17.7-81.5,59.4-81.5c10.1,0,13.2,3.1,15.7,5.6c1.9,1.9,3.3,3.3,8.4,3.3
		c4.5,0,10.3-1.1,16.5-2.3c7.3-1.4,14.8-2.9,21.7-2.9c13.1,0,54.3,28.1,54.3,76.8c0,26.6-15,43-27.6,52.1
		C161,186.7,142.9,191.6,131.6,191.6z M87.3,47.9c-20.5,0-33.7,16-41.1,29.5c-9.3,16.7-13.5,36.2-13.5,47.2
		c0,23.6,15.7,48.9,39.1,48.9c13.9,0,23.8,3.7,33.3,7.2c8.5,3.1,16.4,6.1,26.6,6.1c10.5,0,27.5-4.6,41.8-15
		c11.7-8.4,25.6-23.6,25.6-48.2c0-45.8-38.9-72-49.5-72c-6.4,0-13.7,1.4-20.7,2.8c-6.4,1.2-12.5,2.4-17.4,2.4c-7,0-9.5-2.5-11.7-4.7
		C97.4,50,95.4,47.9,87.3,47.9z"/>
	<path fill="#010101" d="M91.7,249.2c-1.3,0-2.4-1.1-2.4-2.4c0-39.7,27-40.4,50.8-40.9c12.8-0.3,26.1-0.6,34.8-6.8
		c13.7-9.8,20.3-20.3,26.6-30.5c8.7-13.9,17.6-28.3,44.3-40.1c1.2-0.5,2.6,0,3.2,1.2c0.5,1.2,0,2.6-1.2,3.2
		c-25.4,11.2-33.5,24.3-42.2,38.2c-6.6,10.6-13.4,21.5-27.9,31.9c-9.8,7-23.9,7.4-37.4,7.7c-24.8,0.6-46.2,1.1-46.2,36.1
		C94.1,248.2,93.1,249.2,91.7,249.2z"/>
	<path fill="#010101" d="M131.6,249.2c-1.3,0-2.4-1.1-2.4-2.4c0-9.1,17.4-15.1,37.6-22c10.3-3.5,20-6.9,25.9-10.3
		c13.3-7.7,21.9-18.5,29.5-28c8-10,14.9-18.7,24.6-18.7c1.3,0,2.4,1.1,2.4,2.4s-1.1,2.4-2.4,2.4c-7.4,0-13.3,7.5-20.8,16.9
		c-7.5,9.4-16.7,21-30.9,29.2c-6.3,3.6-16.2,7-26.7,10.6c-14.5,5-34.4,11.8-34.4,17.5C134,248.2,133,249.2,131.6,249.2z"/>
	<path fill="#010101" d="M246.8,67.8c-1.3,0-2.4-1.1-2.4-2.4c0-6.3-2.6-8.2-9-12.9c-4-2.9-9-6.6-15-12.6
		c-8.1-8.1-12.3-15.2-12.9-21.7c-0.6-6.1,1.9-11.6,7.7-17.4c0.9-0.9,2.5-0.9,3.4,0c0.9,0.9,0.9,2.5,0,3.4c-4.7,4.7-6.7,9.1-6.3,13.6
		c0.5,5.3,4.2,11.4,11.5,18.7c5.8,5.8,10.6,9.3,14.5,12.2c6.6,4.8,11,8.1,11,16.8C249.2,66.7,248.2,67.8,246.8,67.8z"/>
	<path fill="#010101" d="M246.8,92.4c-13.2,0-16.1-4.4-20.1-10.5c-1.8-2.7-3.8-5.8-7.3-9.2c-2.9-2.9-6.9-4.6-11.6-6.7
		c-6.9-3-15.5-6.8-24.5-15.7c-7.8-7.8-11.7-16.2-11.7-24.9c0-8.5,4.1-17,11.7-24.6c0.9-0.9,2.5-0.9,3.4,0c0.9,0.9,0.9,2.5,0,3.4
		c-6.8,6.8-10.3,13.9-10.3,21.2c0,7.4,3.4,14.6,10.3,21.4c8.3,8.3,16.1,11.7,23,14.7c5.1,2.2,9.6,4.2,13.1,7.7
		c3.8,3.8,6.1,7.2,7.9,10c3.7,5.6,5.5,8.4,16.1,8.4c1.3,0,2.4,1.1,2.4,2.4S248.2,92.4,246.8,92.4z"/>
	<path fill="#010101" d="M2.4,92.4c-0.6,0-1.2-0.2-1.7-0.7c-0.9-0.9-0.9-2.5,0-3.4c3-3,6.1-8.3,9.6-14.4
		C20.8,56,35.1,31.5,66.5,31.5c42.2,0,76.7-12.1,86-30.2c0.6-1.2,2.1-1.6,3.2-1c1.2,0.6,1.6,2.1,1,3.2
		c-10.2,19.9-45.7,32.8-90.3,32.8c-28.7,0-42.2,23.1-52.1,40c-3.7,6.4-6.9,11.9-10.4,15.3C3.6,92.1,3,92.4,2.4,92.4z"/>
	<path fill="#010101" d="M2.4,55.3c-1.3,0-2.4-1.1-2.4-2.4c0-17.3,44.6-38,58.4-38c14.1,0,33.4-7.4,46.2-14.7
		c1.2-0.7,2.6-0.3,3.3,0.9c0.7,1.2,0.3,2.6-0.9,3.3c-12.4,7.1-32.6,15.3-48.6,15.3c-14.1,0-53.6,20.9-53.6,33.2
		C4.8,54.3,3.7,55.3,2.4,55.3z"/>
	<path fill="#010101" d="M61.4,249.2c-0.6,0-1.2-0.2-1.7-0.7c-0.9-0.9-0.9-2.5,0-3.4c5.6-5.5,20-22,20-31.5c0-13.2-19.1-22-36.9-22
		C16.4,191.6,0,175.4,0,149.2c0-1.3,1.1-2.4,2.4-2.4s2.4,1.1,2.4,2.4c0,23.5,14.2,37.6,38,37.6c23,0,41.7,12,41.7,26.8
		c0,13.5-20.6,34-21.4,34.9C62.6,249,62,249.2,61.4,249.2z"/>
	<path fill="#010101" d="M30.2,249.2c-0.7,0-1.3-0.3-1.8-0.8c-0.9-1-0.8-2.5,0.3-3.4c5.4-4.7,20-19.7,16.4-27.4
		c-2-4.3-8.6-8.8-18.1-12.2c-8.3-3-17.9-5-24.6-5c-1.3,0-2.4-1.1-2.4-2.4s1.1-2.4,2.4-2.4c13.3,0,41.3,7.6,47.1,20
		c2.6,5.5,0.3,12.8-6.9,21.8c-5,6.3-10.5,11.1-10.8,11.3C31.4,249.1,30.8,249.2,30.2,249.2z"/>
	<path fill="#010101" d="M189.2,249.2c-0.7,0-1.5-0.3-1.9-1c-0.8-1.1-0.6-2.6,0.5-3.4c8-5.8,16.6-7.7,24.9-9.5
		c14.1-3,26.2-5.7,31.8-27.5c0.3-1.3,1.6-2.1,2.9-1.7c1.3,0.3,2.1,1.6,1.7,2.9c-6.3,24.7-21.1,27.9-35.4,31
		c-7.8,1.7-15.9,3.4-23.1,8.7C190.2,249.1,189.7,249.2,189.2,249.2z"/>
</g>
</svg>
