<?xml version="1.0" encoding="utf-8"?>
<!-- Generator: Adobe Illustrator 21.0.0, SVG Export Plug-In . SVG Version: 6.00 Build 0)  -->
<svg version="1.1" baseProfile="basic" id="Слой_1"
	 xmlns="http://www.w3.org/2000/svg" xmlns:xlink="http://www.w3.org/1999/xlink" x="0px" y="0px" viewBox="0 0 249.1 249.2"
	 xml:space="preserve">
<g>
	<circle fill="#010101" cx="13.7" cy="163.3" r="2.8"/>
	<circle fill="#010101" cx="27.9" cy="160.5" r="2.8"/>
	<circle fill="#010101" cx="38.8" cy="166" r="2.8"/>
	<circle fill="#010101" cx="48.2" cy="162.2" r="2.8"/>
	<circle fill="#010101" cx="53.4" cy="171.4" r="2.8"/>
	<circle fill="#010101" cx="63.1" cy="162.2" r="2.8"/>
	<circle fill="#010101" cx="65.6" cy="174.2" r="2.8"/>
	<circle fill="#010101" cx="79.6" cy="163.3" r="2.8"/>
	<circle fill="#010101" cx="76.9" cy="178.3" r="2.8"/>
	<circle fill="#010101" cx="97.1" cy="163.3" r="2.8"/>
	<circle fill="#010101" cx="89.8" cy="171.4" r="2.8"/>
	<circle fill="#010101" cx="89.8" cy="183.7" r="2.8"/>
	<circle fill="#010101" cx="100" cy="177" r="2.8"/>
	<circle fill="#010101" cx="106.2" cy="168.8" r="2.8"/>
	<circle fill="#010101" cx="116.1" cy="163.3" r="2.8"/>
	<circle fill="#010101" cx="118.8" cy="175.5" r="2.8"/>
	<circle fill="#010101" cx="128.6" cy="176.5" r="2.8"/>
	<circle fill="#010101" cx="158.6" cy="179.7" r="2.8"/>
	<circle fill="#010101" cx="171.4" cy="181.8" r="2.8"/>
	<circle fill="#010101" cx="171.4" cy="163.3" r="2.8"/>
	<circle fill="#010101" cx="164.5" cy="170" r="2.8"/>
	<circle fill="#010101" cx="180.2" cy="160.5" r="2.8"/>
	<circle fill="#010101" cx="177.7" cy="171.8" r="2.8"/>
	<circle fill="#010101" cx="187.1" cy="173.7" r="2.8"/>
	<circle fill="#010101" cx="191" cy="163.3" r="2.8"/>
	<circle fill="#010101" cx="200.3" cy="160.5" r="2.8"/>
	<circle fill="#010101" cx="197.5" cy="171.8" r="2.8"/>
	<circle fill="#010101" cx="231.9" cy="162.2" r="2.8"/>
	<circle fill="#010101" cx="243.8" cy="160.5" r="2.8"/>
	<circle fill="#010101" cx="232.5" cy="172.2" r="2.8"/>
	<circle fill="#010101" cx="243.8" cy="172.7" r="2.8"/>
	<circle fill="#010101" cx="128.6" cy="164.9" r="2.8"/>
	<circle fill="#010101" cx="124.5" cy="187.8" r="2.8"/>
	<circle fill="#010101" cx="135.2" cy="187.8" r="2.8"/>
	<circle fill="#010101" cx="139.1" cy="175.4" r="2.8"/>
	<circle fill="#010101" cx="148.8" cy="170" r="2.8"/>
	<circle fill="#010101" cx="148.3" cy="183.7" r="2.8"/>
	
		<ellipse transform="matrix(0.9994 -3.325370e-02 3.325370e-02 0.9994 -5.3527 4.6797)" fill="#010101" cx="138" cy="163.3" rx="2.8" ry="2.8"/>
	
		<ellipse transform="matrix(6.631976e-02 -0.9978 0.9978 6.631976e-02 -14.6571 305.308)" fill="#010101" cx="155.8" cy="160.5" rx="2.8" ry="2.8"/>
	<circle fill="#010101" cx="110.7" cy="181.8" r="2.8"/>
	<circle fill="#010101" cx="103.5" cy="186.8" r="2.8"/>
	<circle fill="#010101" cx="116.1" cy="190.6" r="2.8"/>
	<path fill="#010101" d="M27.9,106.9h25.5c1.3,0,2.4-1.1,2.4-2.4V81.5c0-1.3-1.1-2.4-2.4-2.4h-6.9c-0.7,0-1.4,0.3-1.9,0.9L26,103
		c-0.6,0.7-0.7,1.7-0.3,2.5S26.9,106.9,27.9,106.9z M47.6,83.9H51v18.3H32.9L47.6,83.9z"/>
	<path fill="#010101" d="M225.2,244.1v-37l21.8-2.7c1.3-0.2,2.3-1.4,2.1-2.7c-0.2-1.3-1.3-2.3-2.7-2.1l-16.9,2.1l14.6-14.6l2,0.6
		c0.2,0.1,0.5,0.1,0.7,0.1c1,0,2-0.7,2.3-1.7c0.4-1.3-0.3-2.6-1.6-3l-22.2-6.8v-21h21.5c1.3,0,2.4-1.1,2.4-2.4s-1.1-2.4-2.4-2.4
		h-21.5v-54c0-1.3-1.1-2.4-2.4-2.4h-4V2.4c0-1.3-1.1-2.4-2.4-2.4S214,1.1,214,2.4v8.7h-19.5c-1.3,0-2.4,1.1-2.4,2.4v9.8h-11.2
		c-1.1,0-2.1,0.7-2.3,1.8l-1.8,7.3c0,0,0,0,0,0L159,102.1h-7.2V88.5c0-1.3-1.1-2.4-2.4-2.4h-47.1c-1.3,0-2.4,1.1-2.4,2.4v13.6H83.2
		V79.8c0-1.3-1.1-2.4-2.4-2.4H68v-8.2c0-1.3-1.1-2.4-2.4-2.4h-25c-0.7,0-1.4,0.3-1.9,0.9L11.9,101c-0.3,0.4-0.5,1-0.5,1.5v37.4
		c0,1.3,1.1,2.4,2.4,2.4h28.4c0.5,3.2,2,6.1,4.1,8.3H2.4c-1.3,0-2.4,1.1-2.4,2.4s1.1,2.4,2.4,2.4h205.2v21.7
		c-5.2,0.6-12.7,3.1-21.8,6.1c-17.3,5.7-41,13.5-63.7,13.5c-7.2,0-14.4-1.1-21.7-2.9c0,0,0,0,0,0c-9.5-2.3-19.2-5.7-29.2-9.3
		c-2.4-0.8-4.8-1.7-7.2-2.5c0,0,0,0,0,0c-18.6-6.5-38.1-12.5-60.8-12.6c-0.7-0.2-1.5-0.1-2.1,0.4c0,0,0,0,0,0
		c-0.1,0.1-0.2,0.1-0.2,0.2l0,0c-0.5,0.4-0.8,1.1-0.8,1.8c0,1.3,1.1,2.4,2.4,2.4c6,0,11.8,0.4,17.4,1.2l-19,19
		c-0.9,0.9-0.9,2.5,0,3.4c0.5,0.5,1.1,0.7,1.7,0.7s1.2-0.2,1.7-0.7l21.5-21.5c4.9,0.9,9.7,2,14.4,3.2L0.8,218.8c0,0,0,0-0.1,0.1
		c-0.1,0.1-0.1,0.1-0.2,0.2c0,0.1-0.1,0.1-0.1,0.2c0,0.1-0.1,0.1-0.1,0.2c0,0.1-0.1,0.1-0.1,0.2c0,0.1,0,0.1-0.1,0.2
		c0,0.1,0,0.1-0.1,0.2c0,0.1,0,0.2,0,0.2c0,0.1,0,0.2,0,0.2c0,0.1,0,0.2,0,0.2c0,0.1,0,0.2,0,0.2c0,0.1,0,0.1,0.1,0.2
		c0,0.1,0,0.2,0.1,0.2c0,0.1,0.1,0.1,0.1,0.2c0,0.1,0.1,0.1,0.1,0.2c0,0,0,0,0,0.1c0,0,0.1,0.1,0.1,0.1c0,0,0.1,0.1,0.1,0.1
		c0,0,0,0,0.1,0.1c0.1,0.1,0.1,0.1,0.2,0.2c0.1,0,0.1,0.1,0.2,0.1c0.1,0,0.1,0.1,0.2,0.1c0.1,0,0.2,0.1,0.2,0.1c0.1,0,0.1,0,0.2,0.1
		c0.1,0,0.2,0,0.3,0.1c0.1,0,0.1,0,0.2,0c0.1,0,0.1,0,0.2,0c0,0,0.1,0,0.1,0c0.1,0,0.1,0,0.2,0c0.1,0,0.2,0,0.3,0
		c0.1,0,0.1,0,0.2-0.1c0.1,0,0.2-0.1,0.2-0.1c0.1,0,0.1-0.1,0.2-0.1c0.1,0,0.2-0.1,0.2-0.1c0,0,0,0,0.1,0c17.5-13.4,35.9-13,56.2-9
		c0,0,0.1,0,0.1,0c6.1,1.2,12.3,2.7,18.7,4.3c13.5,3.3,27.3,6.7,42.1,7.8c0.2,0.1,0.4,0.1,0.6,0.1c0.1,0,0.2,0,0.3,0
		c3.1,0.2,6.2,0.3,9.4,0.3c30.2,0,50.9-8.5,64.7-14.1c4.7-1.9,8.6-3.5,11.5-4.2v38.6c0,1.3,1.1,2.4,2.4,2.4h8.5
		c0.4,0.4,1,0.6,1.5,0.6c0.6,0,1.1-0.2,1.5-0.6h1.2c1.3,0,2.4-1.1,2.4-2.4V244.1C225.2,244.1,225.2,244.1,225.2,244.1z M238.8,185.6
		l-13.6,13.6v-17.7L238.8,185.6z M189.3,137.5c-1.2-7.4-7.6-13.1-15.3-13.1c-7.7,0-14.1,5.7-15.3,13.1h-5.8
		c-1.2-7.4-7.6-13.1-15.3-13.1c-7.7,0-14.1,5.7-15.3,13.1H83.2V120h108.9v17.4H189.3z M72.8,142.3h49.6c0.5,3.2,2,6.1,4.1,8.3H68.7
		C70.8,148.3,72.3,145.4,72.8,142.3z M126.9,139.9c0-5.9,4.8-10.7,10.7-10.7c5.9,0,10.7,4.8,10.7,10.7c0,0,0,0,0,0c0,0,0,0,0,0
		c0,5.9-4.8,10.7-10.7,10.7C131.7,150.5,126.9,145.8,126.9,139.9z M152.9,142.3h5.8c0.5,3.2,2,6.1,4.1,8.3h-14
		C150.9,148.3,152.4,145.4,152.9,142.3z M163.3,139.9C163.3,139.9,163.3,139.9,163.3,139.9C163.3,139.9,163.3,139.8,163.3,139.9
		c0-5.9,4.8-10.7,10.7-10.7c5.9,0,10.7,4.8,10.7,10.7c0,5.9-4.8,10.7-10.7,10.7C168.1,150.5,163.3,145.8,163.3,139.9z M174.4,61.1
		L189.8,74L169,82.2L174.4,61.1z M180.4,37.3l9.7,7.8l-13.5,7.1L180.4,37.3z M192.1,49.5v20.2l-14.8-12.4L192.1,49.5z M192.1,78.3
		v21.9l-21.2-13.5L192.1,78.3z M192.1,28.1v12.4l-10.4-8.3l1-4.1H192.1z M167.1,90l19.1,12.2H164L167.1,90z M104.7,90.9H147v11.2
		h-42.3V90.9z M160.9,106.9C160.9,106.9,160.9,106.9,160.9,106.9C160.9,106.9,160.9,106.9,160.9,106.9h31.2v8.3H83.2v-8.3H160.9z
		 M41.7,71.6h21.5v32.9c0,1.3,1.1,2.4,2.4,2.4s2.4-1.1,2.4-2.4V82.2h10.3v55.3h-5.6c-1.2-7.4-7.6-13.1-15.3-13.1
		c-2.7,0-5.3,0.7-7.6,2H16.2v-23L41.7,71.6z M16.2,131.1h28.4c-1.3,1.9-2.1,4-2.5,6.3h-26V131.1z M46.8,140.9c0.1-0.3,0.2-0.7,0.2-1
		c0-0.4-0.1-0.7-0.2-1c0.5-5.4,5.1-9.7,10.6-9.7c5.9,0,10.7,4.8,10.7,10.7c0,5.9-4.8,10.7-10.7,10.7
		C51.9,150.5,47.4,146.3,46.8,140.9z M185.2,150.5c2.1-2.2,3.6-5.1,4.1-8.3h5.2c1.3,0,2.4-1.1,2.4-2.4v-22.2c0,0,0,0,0,0v-13.1V74.8
		c0,0,0,0,0,0V45.5c0,0,0,0,0,0V15.9H214v78.3h-4c-1.3,0-2.4,1.1-2.4,2.4v54H185.2z M187.2,187.8c8.3-2.7,15.6-5.1,20.3-5.8v0.8
		l-31.4,31.4c-6.7,2.1-14.3,4.1-23,5.4l30.6-30.6C185,188.5,186.1,188.1,187.2,187.8z M105.3,218.6l17.1-17.1
		c6.4,0,12.9-0.6,19.2-1.6l-20.8,20.8C115.6,220.3,110.4,219.5,105.3,218.6z M85.2,214.3l15.4-15.4c5.1,1.2,10.1,2,15.2,2.4
		l-16.3,16.3C94.7,216.5,90,215.4,85.2,214.3z M65.5,209.6l16.3-16.3c4.5,1.5,9,2.9,13.5,4.1L79.8,213
		C75,211.8,70.2,210.6,65.5,209.6z M76.7,191.6l-16.9,16.9c-5.2-1-10.4-1.7-15.5-2.1L63.7,187c2,0.7,3.9,1.4,5.9,2.1
		C72,189.9,74.4,190.8,76.7,191.6z M58.7,185.3l-20.9,20.9c-7.3,0.1-14.4,1.2-21.4,3.8l29-29C49.9,182.3,54.3,183.8,58.7,185.3z
		 M127.3,221.1l22.7-22.7c8.4-1.7,16.4-4,23.9-6.3l-28.4,28.4c-4.4,0.4-9.1,0.7-14.1,0.7C130,221.1,128.6,221.1,127.3,221.1z
		 M194.2,207.4c-2.3,0.9-4.8,2-7.5,3l20.9-20.9v13.2C204.1,203.4,199.8,205.1,194.2,207.4z M212.4,183.8
		C212.4,183.7,212.4,183.7,212.4,183.8V98.9h8v144.2l-0.7,0.7h-7.3V183.8z"/>
	<path fill="#010101" d="M2.4,234.2h8.5c1.3,0,2.4-1.1,2.4-2.4s-1.1-2.4-2.4-2.4H2.4c-1.3,0-2.4,1.1-2.4,2.4S1.1,234.2,2.4,234.2z"
		/>
	<path fill="#010101" d="M21.1,225.2h11.1c1.3,0,2.4-1.1,2.4-2.4s-1.1-2.4-2.4-2.4H21.1c-1.3,0-2.4,1.1-2.4,2.4
		S19.8,225.2,21.1,225.2z"/>
	<path fill="#010101" d="M21.1,237.9h17.7c1.3,0,2.4-1.1,2.4-2.4s-1.1-2.4-2.4-2.4H21.1c-1.3,0-2.4,1.1-2.4,2.4
		S19.8,237.9,21.1,237.9z"/>
	<path fill="#010101" d="M56.2,222.9c1.3,0,2.4-1.1,2.4-2.4s-1.1-2.4-2.4-2.4H45.4c-1.3,0-2.4,1.1-2.4,2.4s1.1,2.4,2.4,2.4H56.2z"/>
	<path fill="#010101" d="M62.8,231.2H51c-1.3,0-2.4,1.1-2.4,2.4s1.1,2.4,2.4,2.4h11.9c1.3,0,2.4-1.1,2.4-2.4S64.2,231.2,62.8,231.2z
		"/>
	<path fill="#010101" d="M80.7,224.6c0-1.3-1.1-2.4-2.4-2.4H68c-1.3,0-2.4,1.1-2.4,2.4s1.1,2.4,2.4,2.4h10.3
		C79.7,227,80.7,226,80.7,224.6z"/>
	<path fill="#010101" d="M54.8,241.7h-16c-1.3,0-2.4,1.1-2.4,2.4s1.1,2.4,2.4,2.4h16c1.3,0,2.4-1.1,2.4-2.4S56.1,241.7,54.8,241.7z"
		/>
	<path fill="#010101" d="M21.1,242.9H2.5c-1.3,0-2.4,1.1-2.4,2.4s1.1,2.4,2.4,2.4h18.6c1.3,0,2.4-1.1,2.4-2.4S22.4,242.9,21.1,242.9
		z"/>
	<path fill="#010101" d="M92.6,242.9H73.2c-1.3,0-2.4,1.1-2.4,2.4s1.1,2.4,2.4,2.4h19.4c1.3,0,2.4-1.1,2.4-2.4
		S93.9,242.9,92.6,242.9z"/>
	<path fill="#010101" d="M99.9,231.2H85.2c-1.3,0-2.4,1.1-2.4,2.4s1.1,2.4,2.4,2.4h14.7c1.3,0,2.4-1.1,2.4-2.4
		S101.2,231.2,99.9,231.2z"/>
	<path fill="#010101" d="M121.4,231.2h-7.9c-1.3,0-2.4,1.1-2.4,2.4s1.1,2.4,2.4,2.4h7.9c1.3,0,2.4-1.1,2.4-2.4
		S122.7,231.2,121.4,231.2z"/>
	<path fill="#010101" d="M118.8,242.9H109c-1.3,0-2.4,1.1-2.4,2.4s1.1,2.4,2.4,2.4h9.8c1.3,0,2.4-1.1,2.4-2.4
		S120.2,242.9,118.8,242.9z"/>
	<path fill="#010101" d="M135.2,234.2h8.7c1.3,0,2.4-1.1,2.4-2.4s-1.1-2.4-2.4-2.4h-8.7c-1.3,0-2.4,1.1-2.4,2.4
		S133.9,234.2,135.2,234.2z"/>
	<path fill="#010101" d="M151.5,241.7h-16.3c-1.3,0-2.4,1.1-2.4,2.4s1.1,2.4,2.4,2.4h16.3c1.3,0,2.4-1.1,2.4-2.4
		S152.9,241.7,151.5,241.7z"/>
	<path fill="#010101" d="M171,235.5c0-1.3-1.1-2.4-2.4-2.4h-10c-1.3,0-2.4,1.1-2.4,2.4s1.1,2.4,2.4,2.4h10
		C169.9,237.9,171,236.8,171,235.5z"/>
	<path fill="#010101" d="M187.1,243.1h-15.7c-1.3,0-2.4,1.1-2.4,2.4s1.1,2.4,2.4,2.4h15.7c1.3,0,2.4-1.1,2.4-2.4
		S188.4,243.1,187.1,243.1z"/>
	<path fill="#010101" d="M197.5,231.2h-7.6c-1.3,0-2.4,1.1-2.4,2.4s1.1,2.4,2.4,2.4h7.6c1.3,0,2.4-1.1,2.4-2.4
		S198.8,231.2,197.5,231.2z"/>
	<path fill="#010101" d="M180.5,229c1.3,0,2.4-1.1,2.4-2.4s-1.1-2.4-2.4-2.4h-2.8c-1.3,0-2.4,1.1-2.4,2.4s1.1,2.4,2.4,2.4H180.5z"/>
	<path fill="#010101" d="M197.5,218.1h-3.8c-1.3,0-2.4,1.1-2.4,2.4s1.1,2.4,2.4,2.4h3.8c1.3,0,2.4-1.1,2.4-2.4
		S198.8,218.1,197.5,218.1z"/>
	<path fill="#010101" d="M231.9,214.7h3.3c1.3,0,2.4-1.1,2.4-2.4s-1.1-2.4-2.4-2.4h-3.3c-1.3,0-2.4,1.1-2.4,2.4
		S230.6,214.7,231.9,214.7z"/>
	<path fill="#010101" d="M246.6,220.4h-11.4c-1.3,0-2.4,1.1-2.4,2.4s1.1,2.4,2.4,2.4h11.4c1.3,0,2.4-1.1,2.4-2.4
		S248,220.4,246.6,220.4z"/>
	<path fill="#010101" d="M240.7,233.2c0-1.3-1.1-2.4-2.4-2.4h-5.8c-1.3,0-2.4,1.1-2.4,2.4s1.1,2.4,2.4,2.4h5.8
		C239.6,235.6,240.7,234.6,240.7,233.2z"/>
	<path fill="#010101" d="M246.7,242.9h-8.4c-1.3,0-2.4,1.1-2.4,2.4s1.1,2.4,2.4,2.4h8.4c1.3,0,2.4-1.1,2.4-2.4
		S248.1,242.9,246.7,242.9z"/>
</g>
</svg>
