<?xml version="1.0" encoding="utf-8"?>
<!-- Generator: Adobe Illustrator 21.0.0, SVG Export Plug-In . SVG Version: 6.00 Build 0)  -->
<svg version="1.1" baseProfile="basic" id="Слой_1"
	 xmlns="http://www.w3.org/2000/svg" xmlns:xlink="http://www.w3.org/1999/xlink" x="0px" y="0px" viewBox="0 0 190.6 249.2"
	 xml:space="preserve">
<g>
	<path fill="#010101" d="M95.3,49c8.1,0,14.8-6.6,14.8-14.8c0-8.1-6.6-14.8-14.8-14.8c-8.1,0-14.8,6.6-14.8,14.8
		C80.5,42.3,87.1,49,95.3,49z M95.3,24.3c5.5,0,10,4.5,10,10c0,5.5-4.5,10-10,10c-5.5,0-10-4.5-10-10C85.3,28.7,89.8,24.3,95.3,24.3
		z"/>
	<path fill="#010101" d="M190.4,246L130,92.3h0.2c6.1,0,11-4.9,11-11V23.1c0-6.1-4.9-11-11-11h-8.2V8.8c0-4.9-4-8.8-8.8-8.8H77.5
		c-4.9,0-8.8,4-8.8,8.8v3.2h-8.2c-6.1,0-11,4.9-11,11v58.3c0,6.1,4.9,11,11,11h0.2L0.2,246c-0.5,1.2,0.1,2.6,1.4,3.1
		c0.3,0.1,0.6,0.2,0.9,0.2c1,0,1.9-0.6,2.2-1.5L65.7,92.3h2.9v14.7L14,246c-0.5,1.2,0.1,2.6,1.4,3.1c0.3,0.1,0.6,0.2,0.9,0.2
		c1,0,1.9-0.6,2.2-1.5l50.2-127.5v17.3c0,1.3,1.1,2.4,2.4,2.4h15.4v107c0,1.3,1.1,2.4,2.4,2.4s2.4-1.1,2.4-2.4v-107h8.1v107
		c0,1.3,1.1,2.4,2.4,2.4s2.4-1.1,2.4-2.4v-107h15.4c1.3,0,2.4-1.1,2.4-2.4v-17.3l50.2,127.5c0.4,0.9,1.3,1.5,2.2,1.5
		c0.3,0,0.6-0.1,0.9-0.2c1.2-0.5,1.8-1.9,1.4-3.1l-54.6-138.9V92.3h2.9l61.1,155.4c0.4,0.9,1.3,1.5,2.2,1.5c0.3,0,0.6-0.1,0.9-0.2
		C190.3,248.6,190.9,247.2,190.4,246z M73.4,8.8c0-2.2,1.8-4,4-4h35.6c2.2,0,4,1.8,4,4v50.7c0,2.2-1.8,4-4,4H77.5c-2.2,0-4-1.8-4-4
		V8.8z M54.2,81.4V23.1c0-3.4,2.8-6.2,6.2-6.2h8.2v42.7c0,4.9,4,8.8,8.8,8.8h35.6c4.9,0,8.8-4,8.8-8.8V16.9h8.2
		c3.4,0,6.2,2.8,6.2,6.2v58.3c0,3.4-2.8,6.2-6.2,6.2H60.4C57,87.5,54.2,84.8,54.2,81.4z M117.1,135.1H73.4v-27.6c0,0,0,0,0-0.1V92.3
		h43.7V135.1z"/>
</g>
</svg>
