<?xml version="1.0" encoding="utf-8"?>
<!-- Generator: Adobe Illustrator 21.0.0, SVG Export Plug-In . SVG Version: 6.00 Build 0)  -->
<svg version="1.1" baseProfile="basic" id="Слой_1"
	 xmlns="http://www.w3.org/2000/svg" xmlns:xlink="http://www.w3.org/1999/xlink" x="0px" y="0px" viewBox="0 0 249.4 247.3"
	 xml:space="preserve">
<path fill="#010101" d="M97.3,172.1c0,5.1,4.6,7.9,13.6,8.3v11.5c0,0.7,0,1.4,0,2c-5.4,4.9-8,9-8,12.6c0,3,1.3,4.7,2.4,5.6
	c1.5,1.2,3.7,1.9,6.4,1.9c1.2,0,2.5-0.1,3.9-0.3l3.9,10.4c0.8,2.1,2.8,3.5,5.1,3.5c2.2,0,4.3-1.4,5.1-3.5l5.6-15.1
	c0.2-0.7,0.5-1.3,0.7-2c2.3-1,3.9-1.8,4.3-2c1.2-0.6,1.7-2,1.1-3.2c-0.6-1.2-2-1.7-3.2-1.1c-0.1,0.1-0.4,0.2-0.7,0.3
	c0.6-3,0.8-6,0.8-9.1v-10.9c5.9-3.4,10.7-5.9,12.1-6.6c0.1,0,0.1-0.1,0.2-0.1c0,0,0.1,0,0.1,0c0.1,0,0.1,0,0.1,0l-2.4-4.1l0.1,0
	c0,0,0,0,0,0c-1.2,0.5-5,1.6-10.1,2.7v-29.8c6-3.5,10.7-6,12.1-6.8c0,0,0,0,0,0c0.1,0,0.2-0.1,0.2-0.1c0.1,0,0.1-0.1,0.1-0.1l0,0
	l0,0l-2.5-4.1c0,0,0,0,0.1-0.1c0,0,0,0,0,0c0,0,0,0,0,0c-1.2,0.5-5,1.6-10.1,2.7v-29.8c6.5-3.8,11.3-6.3,12.1-6.8c0,0,0,0,0,0
	c0.1,0,0.2-0.1,0.2-0.1c0,0,0,0,0,0c0,0,0.1,0,0.1,0l-2.5-4.1c0,0,0,0,0.1,0c0,0,0,0,0,0c0,0,0,0,0,0c0,0,0,0,0,0
	c-1.2,0.5-5,1.6-10.1,2.7V66.5c2.3-1.4,4.7-2.7,7-4c1.7-0.9,2.6-2.9,2.4-4.8c-0.3-1.9-1.7-3.5-3.6-3.9l-5.8-1.3V2.4
	c0-1.3-1.1-2.4-2.4-2.4s-2.4,1.1-2.4,2.4v61.3c-5.1,3-11.7,7.1-17.8,11.4V2.4c0-1.3-1.1-2.4-2.4-2.4s-2.4,1.1-2.4,2.4v76.2
	c-9.3,7.2-13.6,12.6-13.6,17.1c0,5.1,4.6,7.9,13.6,8.3v12.8c-9.3,7.2-13.6,12.6-13.6,17.1c0,5.1,4.6,7.9,13.6,8.3V155
	C101.7,162.2,97.3,167.6,97.3,172.1z M102.1,172.1c0-1.2,0.9-4.4,8.8-10.9v14.4C105.4,175.3,102.1,174,102.1,172.1z M115.7,119.2
	c5.7-4.3,12.3-8.4,17.8-11.7v29.8c0,0,0,0,0,0v2.7c-6.8,4-12.7,7.8-17.8,11.4V119.2z M133.5,175.5
	C133.5,175.6,133.5,175.6,133.5,175.5v2.7c-5.3,3.2-12,7.4-17.8,11.8v-32.6c4.8-3.6,10.8-7.5,17.8-11.7V175.5z M108.4,208.4
	c-0.2-0.1-0.7-0.5-0.7-1.8c0-1,0.6-3.1,3.9-6.5c0.5,3,1.3,6,2.4,9l0,0C110.3,209.4,108.9,208.7,108.4,208.4z M125.2,222.4
	c-0.2,0.5-0.9,0.5-1.1,0l-5.6-15.1c-1.4-3.7-2.2-7.5-2.6-11.3c5.2-4.4,11.9-8.7,17.6-12.2v8.1c0,5.3-0.9,10.5-2.8,15.4L125.2,222.4z
	 M142.8,58.4c-1.5,0.8-3,1.7-4.5,2.5v-3.5L142.8,58.4z M133.5,69.3v29.8c0,0,0,0,0,0v2.7c-5.1,3-11.7,7.1-17.8,11.4V81
	C121.5,76.7,128.1,72.6,133.5,69.3z M102.1,95.7c0-1.2,0.9-4.4,8.8-10.9v14.4C105.4,98.9,102.1,97.6,102.1,95.7z M102.1,133.9
	c0-1.2,0.9-4.4,8.8-10.9v14.4C105.4,137.1,102.1,135.8,102.1,133.9z"/>
<path fill="#010101" d="M164.3,183.2v-12.2c6.7-0.1,11.2-0.9,15.1-1.8c0.1,0,0.1,0,0.2,0c1.5-0.4,2.9-0.7,4.3-1.1
	c5.3-1.5,10.3-2.8,20.6-2.8c0.7,0,1.3,0,2,0c0,0,0.1,0,0.1,0c0,0,0,0,0,0c8.9,0.2,13.6,1.5,18.5,2.8c5.4,1.5,10.9,3,21.9,3
	c1.3,0,2.4-1.1,2.4-2.4s-1.1-2.4-2.4-2.4c-7,0-11.6-0.6-15.4-1.5l17.2-17.2c0.9-0.9,0.9-2.5,0-3.4s-2.5-0.9-3.4,0L226,163.3
	c-3.9-1.1-7.9-2.1-14.1-2.6l36.7-36.7c0.9-0.9,0.9-2.5,0-3.4c-0.9-0.9-2.5-0.9-3.4,0l-39.8,39.8c-0.4,0-0.7,0-1.1,0
	c-8.1,0-13.2,0.8-17.5,1.8l61.7-61.7c0.9-0.9,0.9-2.5,0-3.4c-0.9-0.9-2.5-0.9-3.4,0l-67.5,67.5c-3.5,0.8-7.5,1.4-13.4,1.6v-4.8
	L238,87.6c2.5-0.3,5.4-0.4,8.9-0.4c1.3,0,2.4-1.1,2.4-2.4s-1.1-2.4-2.4-2.4c-4.2,0-7.5,0.2-10.4,0.6c0,0,0,0,0,0
	c-4.7,0.6-8.1,1.5-11.4,2.4c-5.3,1.5-10.3,2.8-20.6,2.8c-10.3,0-15.3-1.4-20.6-2.8c-4.5-1.2-9.1-2.5-16.8-2.9c-0.1,0-0.2,0-0.2,0
	c-0.8,0-1.6-0.1-2.5-0.1V33.7c0-3.5,2.8-6.3,6.3-6.3h76.2c1.3,0,2.4-1.1,2.4-2.4s-1.1-2.4-2.4-2.4h-76.2c-6.1,0-11.1,5-11.1,11.1
	v149.5c0,0.2,0,0.3,0,0.5c0,0,0,0.1,0,0.1c-0.1,16.8-6,33.3-16.6,46.4l-4.7,5.9c-3.3,4.1-8.2,6.5-13.5,6.5c-5.3,0-10.2-2.4-13.5-6.5
	l-4.7-5.9c-5.7-7-10-15-12.8-23.5c-2-6.2-3.3-12.6-3.7-19.1c-0.1-1.4-0.1-2.9-0.1-4.4v-18.9c0,0,0,0,0,0v-23.5c0,0,0,0,0,0v-23.5
	c0,0,0,0,0,0V93.8c0,0,0,0,0,0V33.7c0-6.1-5-11.1-11.1-11.1H2.4C1.1,22.6,0,23.7,0,25s1.1,2.4,2.4,2.4h76.2c3.5,0,6.3,2.8,6.3,6.3
	v48.7c-6.1,0.1-10.4,0.8-14,1.6c0,0-0.1,0-0.1,0c-1.9,0.4-3.6,0.9-5.4,1.4c-5.3,1.5-10.3,2.8-20.6,2.8s-15.3-1.4-20.6-2.8
	c-5.4-1.5-10.9-3-21.9-3c-1.2,0-2.2,0.9-2.4,2c0,0,0,0,0,0c0,0.1,0,0.2,0,0.4c0,0,0,0,0,0c0,0.6,0.2,1.2,0.7,1.7
	c0.5,0.5,1.1,0.7,1.7,0.7c0.1,0,0.2,0,0.3,0c7.2,0,11.8,0.7,15.8,1.6L0.7,106.6c-0.9,0.9-0.9,2.5,0,3.4c0.5,0.5,1.1,0.7,1.7,0.7
	s1.2-0.2,1.7-0.7l19.8-19.8c3.9,1.1,8,2.1,14.2,2.5L0.7,130.1c-0.9,0.9-0.9,2.5,0,3.4c0.5,0.5,1.1,0.7,1.7,0.7s1.2-0.2,1.7-0.7
	L44.6,93c0.1,0,0.2,0,0.3,0c8.7,0,14-1,18.5-2.1L0.7,153.6c-0.9,0.9-0.9,2.5,0,3.4c0.5,0.5,1.1,0.7,1.7,0.7s1.2-0.2,1.7-0.7
	l68.5-68.5c3.3-0.7,7.1-1.2,12.4-1.3v5.6l-72.8,72.8c-2.7,0.3-5.9,0.5-9.8,0.5c-1.3,0-2.4,1.1-2.4,2.4s1.1,2.4,2.4,2.4
	c10.9,0,16.5-1.5,21.9-3c5.3-1.5,10.3-2.8,20.6-2.8c8.5,0,13.4,0.9,17.8,2.1c0.1,0,0.1,0,0.2,0.1c0.9,0.2,1.7,0.5,2.6,0.7
	c4.6,1.3,9.4,2.6,17.7,2.9c0,0,0,0,0.1,0c0,0,0,0,0,0c0.6,0,1.1,0,1.7,0.1v12.2c0,1.5,0,3.1,0.1,4.6c0.4,6.9,1.7,13.7,3.9,20.3
	c3,9.1,7.6,17.5,13.6,25l4.7,5.9c4.2,5.2,10.5,8.2,17.2,8.2c6.7,0,13-3,17.2-8.2l4.7-5.9c11.2-13.9,17.5-31.4,17.7-49.3
	C164.3,183.7,164.3,183.4,164.3,183.2z M67.9,163.7l17-17v16.7l-2.7,2.7C75.9,165.7,71.9,164.7,67.9,163.7z M47.7,160.4L85,123.1
	v16.7l-22.4,22.4C58.8,161.3,54.3,160.6,47.7,160.4z M23,163.3c-0.8,0.2-1.6,0.4-2.4,0.6L85,99.6v16.7l-44.1,44.1
	C32.5,160.8,27.7,162.1,23,163.3z M164.3,90.8l3.5-3.5c6.3,0.4,10.2,1.4,14.2,2.5l-17.7,17.7V90.8z M164.3,114.3l23.1-23.1
	c3.8,0.9,8.3,1.6,15,1.7l-38,38V114.3z M226.2,90c1.1-0.3,2.3-0.6,3.5-0.9l-65.4,65.4v-16.7l44.9-44.9
	C217.1,92.5,221.7,91.3,226.2,90z"/>
<circle fill="#010101" cx="178.9" cy="39" r="3.9"/>
<circle fill="#010101" cx="70.5" cy="39" r="3.9"/>
<circle fill="#010101" cx="174.2" cy="54.4" r="3.9"/>
<circle fill="#010101" cx="75.2" cy="54.4" r="3.9"/>
<circle fill="#010101" cx="195.5" cy="35.1" r="3.9"/>
<circle fill="#010101" cx="53.9" cy="35.1" r="3.9"/>
<circle fill="#010101" cx="190.5" cy="50.1" r="3.9"/>
<circle fill="#010101" cx="58.9" cy="50.1" r="3.9"/>
<circle fill="#010101" cx="174.2" cy="72.9" r="3.9"/>
<circle fill="#010101" cx="75.2" cy="72.9" r="3.9"/>
<circle fill="#010101" cx="185" cy="65.2" r="3.9"/>
<circle fill="#010101" cx="64.4" cy="65.2" r="3.9"/>
<circle fill="#010101" cx="194.4" cy="80.7" r="3.9"/>
<circle fill="#010101" cx="198.2" cy="65.2" r="3.9"/>
<circle fill="#010101" cx="51.2" cy="65.2" r="3.9"/>
<circle fill="#010101" cx="208.1" cy="78" r="3.9"/>
<circle fill="#010101" cx="41.3" cy="78" r="3.9"/>
<circle fill="#010101" cx="220.7" cy="76.8" r="3.9"/>
<circle fill="#010101" cx="28.7" cy="76.8" r="3.9"/>
<circle fill="#010101" cx="212.9" cy="62.4" r="3.9"/>
<circle fill="#010101" cx="36.5" cy="62.4" r="3.9"/>
<circle fill="#010101" cx="206" cy="50.1" r="3.9"/>
<circle fill="#010101" cx="43.4" cy="50.1" r="3.9"/>
<circle fill="#010101" cx="212.9" cy="39" r="3.9"/>
<circle fill="#010101" cx="36.5" cy="39" r="3.9"/>
<circle fill="#010101" cx="223.4" cy="54" r="3.9"/>
<circle fill="#010101" cx="26" cy="54" r="3.9"/>
<circle fill="#010101" cx="227.3" cy="37.4" r="3.9"/>
<circle fill="#010101" cx="22.1" cy="37.4" r="3.9"/>
<circle fill="#010101" cx="243" cy="35.1" r="3.9"/>
<circle fill="#010101" cx="6.5" cy="35.1" r="3.9"/>
<circle fill="#010101" cx="236.8" cy="46.2" r="3.9"/>
<circle fill="#010101" cx="12.6" cy="46.2" r="3.9"/>
<circle fill="#010101" cx="243" cy="58.3" r="3.9"/>
<circle fill="#010101" cx="6.5" cy="58.3" r="3.9"/>
<circle fill="#010101" cx="229" cy="65.2" r="3.9"/>
<circle fill="#010101" cx="20.4" cy="65.2" r="3.9"/>
<circle fill="#010101" cx="243" cy="72.9" r="3.9"/>
<circle fill="#010101" cx="6.5" cy="72.9" r="3.9"/>
<path fill="#010101" d="M2.6,183.4h10.7c1.3,0,2.4-1.1,2.4-2.4s-1.1-2.4-2.4-2.4H2.6c-1.3,0-2.4,1.1-2.4,2.4S1.2,183.4,2.6,183.4z"
	/>
<path fill="#010101" d="M246.8,178.6h-10.7c-1.3,0-2.4,1.1-2.4,2.4s1.1,2.4,2.4,2.4h10.7c1.3,0,2.4-1.1,2.4-2.4
	S248.2,178.6,246.8,178.6z"/>
<path fill="#010101" d="M32.6,176.2h11c1.3,0,2.4-1.1,2.4-2.4s-1.1-2.4-2.4-2.4h-11c-1.3,0-2.4,1.1-2.4,2.4S31.3,176.2,32.6,176.2z"
	/>
<path fill="#010101" d="M216.8,171.4h-11c-1.3,0-2.4,1.1-2.4,2.4s1.1,2.4,2.4,2.4h11c1.3,0,2.4-1.1,2.4-2.4S218.1,171.4,216.8,171.4
	z"/>
<path fill="#010101" d="M76.8,177.7c0-1.3-1.1-2.4-2.4-2.4H57.8c-1.3,0-2.4,1.1-2.4,2.4s1.1,2.4,2.4,2.4h16.6
	C75.7,180.1,76.8,179,76.8,177.7z"/>
<path fill="#010101" d="M191.6,175.3H175c-1.3,0-2.4,1.1-2.4,2.4s1.1,2.4,2.4,2.4h16.6c1.3,0,2.4-1.1,2.4-2.4
	S192.9,175.3,191.6,175.3z"/>
<path fill="#010101" d="M74.4,190.7H60.5c-1.3,0-2.4,1.1-2.4,2.4s1.1,2.4,2.4,2.4h13.9c1.3,0,2.4-1.1,2.4-2.4S75.7,190.7,74.4,190.7
	z"/>
<path fill="#010101" d="M188.9,190.7H175c-1.3,0-2.4,1.1-2.4,2.4s1.1,2.4,2.4,2.4h13.9c1.3,0,2.4-1.1,2.4-2.4
	S190.2,190.7,188.9,190.7z"/>
<path fill="#010101" d="M32.6,191.9h9.3c1.3,0,2.4-1.1,2.4-2.4s-1.1-2.4-2.4-2.4h-9.3c-1.3,0-2.4,1.1-2.4,2.4S31.3,191.9,32.6,191.9
	z"/>
<path fill="#010101" d="M216.8,187.1h-9.3c-1.3,0-2.4,1.1-2.4,2.4s1.1,2.4,2.4,2.4h9.3c1.3,0,2.4-1.1,2.4-2.4
	S218.1,187.1,216.8,187.1z"/>
<path fill="#010101" d="M2.6,200.3h10c1.3,0,2.4-1.1,2.4-2.4s-1.1-2.4-2.4-2.4h-10c-1.3,0-2.4,1.1-2.4,2.4S1.2,200.3,2.6,200.3z"/>
<path fill="#010101" d="M246.8,195.5h-10c-1.3,0-2.4,1.1-2.4,2.4s1.1,2.4,2.4,2.4h10c1.3,0,2.4-1.1,2.4-2.4S248.2,195.5,246.8,195.5
	z"/>
<path fill="#010101" d="M45.8,205.2c0-1.3-1.1-2.4-2.4-2.4H26c-1.3,0-2.4,1.1-2.4,2.4s1.1,2.4,2.4,2.4h17.4
	C44.7,207.6,45.8,206.5,45.8,205.2z"/>
<path fill="#010101" d="M223.4,202.8H206c-1.3,0-2.4,1.1-2.4,2.4s1.1,2.4,2.4,2.4h17.4c1.3,0,2.4-1.1,2.4-2.4
	S224.8,202.8,223.4,202.8z"/>
<path fill="#010101" d="M16.5,213.5H2.4c-1.3,0-2.4,1.1-2.4,2.4s1.1,2.4,2.4,2.4h14.1c1.3,0,2.4-1.1,2.4-2.4S17.8,213.5,16.5,213.5z
	"/>
<path fill="#010101" d="M249.4,215.9c0-1.3-1.1-2.4-2.4-2.4h-14.1c-1.3,0-2.4,1.1-2.4,2.4s1.1,2.4,2.4,2.4H247
	C248.3,218.3,249.4,217.3,249.4,215.9z"/>
<path fill="#010101" d="M77.7,209.4c0-1.3-1.1-2.4-2.4-2.4H60.5c-1.3,0-2.4,1.1-2.4,2.4s1.1,2.4,2.4,2.4h14.8
	C76.7,211.8,77.7,210.7,77.7,209.4z"/>
<path fill="#010101" d="M188.9,207h-14.8c-1.3,0-2.4,1.1-2.4,2.4s1.1,2.4,2.4,2.4h14.8c1.3,0,2.4-1.1,2.4-2.4S190.2,207,188.9,207z"
	/>
<path fill="#010101" d="M87.4,222.5h-16c-1.3,0-2.4,1.1-2.4,2.4s1.1,2.4,2.4,2.4h16c1.3,0,2.4-1.1,2.4-2.4S88.7,222.5,87.4,222.5z"
	/>
<path fill="#010101" d="M178.1,222.5h-16c-1.3,0-2.4,1.1-2.4,2.4s1.1,2.4,2.4,2.4h16c1.3,0,2.4-1.1,2.4-2.4S179.4,222.5,178.1,222.5
	z"/>
<path fill="#010101" d="M47.3,217.3H36.5c-1.3,0-2.4,1.1-2.4,2.4s1.1,2.4,2.4,2.4h10.8c1.3,0,2.4-1.1,2.4-2.4S48.6,217.3,47.3,217.3
	z"/>
<path fill="#010101" d="M212.9,217.3h-10.8c-1.3,0-2.4,1.1-2.4,2.4s1.1,2.4,2.4,2.4h10.8c1.3,0,2.4-1.1,2.4-2.4
	S214.3,217.3,212.9,217.3z"/>
<path fill="#010101" d="M13.3,226.2H2.6c-1.3,0-2.4,1.1-2.4,2.4s1.1,2.4,2.4,2.4h10.7c1.3,0,2.4-1.1,2.4-2.4S14.6,226.2,13.3,226.2z
	"/>
<path fill="#010101" d="M246.8,226.2h-10.7c-1.3,0-2.4,1.1-2.4,2.4s1.1,2.4,2.4,2.4h10.7c1.3,0,2.4-1.1,2.4-2.4
	S248.2,226.2,246.8,226.2z"/>
</svg>
